<?xml version="1.0" standalone="no"?>
<!DOCTYPE svg PUBLIC "-//W3C//DTD SVG 20010904//EN"
 "http://www.w3.org/TR/2001/REC-SVG-20010904/DTD/svg10.dtd">
<svg version="1.0" xmlns="http://www.w3.org/2000/svg"
 width="7059.000000pt" height="2416.000000pt" viewBox="0 0 7059.000000 2416.000000"
 preserveAspectRatio="xMidYMid meet">
<metadata>
Created by potrace 1.16, written by Peter Selinger 2001-2019
</metadata>
<g transform="translate(0.000000,2416.000000) scale(0.100000,-0.100000)"
fill="#000000" stroke="none">
<path d="M2285 24145 c-181 -33 -356 -111 -493 -220 -131 -106 -227 -227 -312
-395 -94 -187 -139 -358 -147 -562 l-6 -138 -127 0 c-72 0 -162 -7 -207 -15
-491 -93 -838 -502 -904 -1065 -44 -379 66 -697 330 -960 260 -258 621 -412
971 -413 196 -1 376 34 604 119 115 42 120 43 139 26 48 -42 1843 -1784 1851
-1795 6 -10 -20 -49 -88 -131 -749 -911 -1342 -2044 -1676 -3201 -136 -470
-242 -999 -295 -1475 -9 -80 -17 -146 -18 -147 -1 0 -67 -31 -147 -68 -193
-88 -1182 -607 -1172 -616 4 -3 286 -59 627 -123 341 -65 628 -120 638 -123
15 -4 17 -21 17 -166 0 -276 29 -661 76 -1017 161 -1215 575 -2397 1212 -3460
147 -246 429 -660 574 -844 l38 -48 -229 -237 c-126 -130 -486 -492 -798 -804
l-569 -568 -94 45 c-334 155 -820 247 -1075 203 -428 -75 -767 -358 -922 -767
-54 -141 -74 -262 -80 -467 -4 -124 -1 -220 6 -273 85 -581 520 -952 1167
-996 l101 -6 6 -127 c13 -297 117 -552 307 -755 221 -236 503 -343 875 -335
85 2 151 1 147 -2 -4 -4 -155 -118 -337 -255 l-330 -249 432 -3 432 -2 6 -43
c8 -62 85 -789 85 -809 0 -10 5 -18 10 -18 8 0 202 137 286 202 8 6 32 -47 79
-174 37 -101 70 -187 74 -191 4 -4 90 31 191 78 101 47 185 85 187 85 1 0 33
-60 69 -133 36 -72 68 -134 70 -136 1 -2 84 29 184 67 l181 71 148 -90 c82
-49 153 -89 158 -89 5 0 44 47 88 105 44 58 85 103 90 101 59 -22 508 -157
511 -153 3 2 -25 162 -61 353 -63 336 -111 543 -154 668 -17 49 -19 61 -8 77
8 10 99 110 205 222 243 259 584 588 923 890 l76 67 2009 -2 2009 -3 150 -28
c254 -47 440 -60 785 -54 318 5 423 15 657 62 l122 25 2501 0 2500 0 303 -161
c1271 -675 2312 -1120 3018 -1289 274 -65 359 -75 654 -74 299 0 437 15 667
73 232 59 476 170 658 299 117 83 287 249 368 360 159 216 280 504 307 735 l7
57 3389 0 3389 0 417 -238 c1764 -1008 2522 -1359 3112 -1443 118 -17 379 -6
504 21 264 56 506 171 751 358 128 97 346 314 460 457 176 221 358 517 455
743 l44 102 3136 0 3136 0 360 -231 c915 -588 1388 -870 1813 -1083 384 -192
704 -307 962 -346 173 -26 432 -9 610 40 427 118 816 422 1120 875 140 208
259 438 335 642 l38 103 3103 0 3104 0 267 -187 c605 -422 1206 -816 1657
-1087 1568 -942 2924 -1424 4121 -1465 1663 -57 3310 489 4785 1587 391 291
724 578 1101 949 l206 203 2379 2 2379 3 80 27 c209 71 351 210 421 413 26 73
28 92 29 225 0 125 -3 156 -23 220 -70 223 -217 377 -431 454 l-86 31 -1798 3
c-989 1 -1797 6 -1795 10 2 4 65 96 141 205 142 202 312 462 451 688 l78 126
121 -44 c67 -24 183 -62 257 -84 74 -23 138 -45 143 -49 4 -3 -36 -135 -90
-293 -54 -157 -95 -288 -92 -292 6 -5 2312 546 2352 563 14 6 -161 163 -850
760 -707 615 -868 750 -873 735 -4 -10 -35 -130 -70 -268 -35 -137 -65 -252
-66 -254 -2 -2 -72 36 -157 85 l-155 87 55 116 c389 816 624 1453 744 2009 41
190 38 181 49 162 190 -312 319 -515 328 -515 7 0 69 72 138 160 69 88 134
171 145 183 l18 24 143 -116 c79 -64 147 -115 151 -113 5 1 56 104 114 227 58
124 108 228 112 232 3 3 188 12 411 18 223 7 435 15 471 19 l67 6 -275 300
c-294 320 -391 432 -468 539 -46 66 -48 71 -57 164 -41 449 -297 968 -741
1502 -96 116 -338 380 -409 446 -46 43 -49 49 -33 58 120 71 297 234 403 373
466 612 548 1548 198 2269 -282 582 -771 913 -1316 891 -302 -13 -551 -113
-804 -326 -207 -174 -409 -481 -512 -778 l-29 -83 -132 0 -133 0 0 565 0 565
-570 0 -570 0 0 -565 0 -565 -775 0 -775 0 0 33 c0 17 7 93 16 167 162 1417
773 2700 1853 3892 186 206 587 600 794 781 398 347 846 685 1282 967 146 94
435 270 445 270 3 0 48 -156 99 -347 52 -192 97 -354 100 -361 5 -8 300 314
820 895 682 761 810 909 795 915 -28 12 -2417 639 -2420 635 -2 -1 53 -153
122 -336 68 -184 124 -337 124 -340 0 -4 -55 -24 -122 -45 -589 -183 -1313
-491 -1888 -803 -673 -365 -1232 -749 -1780 -1222 -176 -152 -626 -599 -775
-770 -833 -959 -1380 -2056 -1624 -3256 l-36 -180 0 1615 c-1 1836 -5 2033
-55 2225 -43 167 -122 365 -230 580 -352 700 -856 1226 -1500 1568 -613 325
-1419 450 -2140 331 -557 -92 -1098 -339 -1577 -720 -131 -105 -428 -403 -537
-539 -379 -476 -627 -1015 -725 -1580 -48 -273 -46 -10 -46 -5490 0 -4917 1
-5165 18 -5275 81 -521 310 -1010 703 -1505 113 -142 427 -456 569 -569 242
-192 431 -313 690 -441 260 -128 489 -210 737 -264 580 -125 1321 -69 1915
144 149 54 426 187 563 270 361 219 686 525 949 893 273 382 506 915 609 1392
l27 125 -3 550 c-6 961 -38 3514 -43 3520 -3 3 -711 4 -1572 3 l-1566 -3 176
-290 c223 -367 290 -517 344 -762 41 -190 37 -912 -7 -1293 -84 -733 -304
-1178 -615 -1249 -65 -15 -199 -13 -287 5 -299 60 -456 269 -534 709 -25 143
-35 566 -20 820 8 118 15 1324 22 3510 10 3305 16 3801 46 4070 46 420 149
697 307 824 107 86 264 128 447 118 171 -10 273 -50 378 -151 166 -159 264
-427 314 -861 9 -73 13 -253 13 -535 l0 -425 -28 -129 c-32 -143 -99 -359
-159 -511 -22 -55 -106 -236 -188 -402 l-149 -303 1576 0 1575 0 -5 -22 c-25
-101 -76 -534 -99 -828 -26 -353 -14 -1047 28 -1495 118 -1284 487 -2455 1097
-3485 680 -1147 1686 -2145 2915 -2890 106 -64 152 -97 148 -106 -17 -44 -274
-458 -431 -694 -246 -371 -504 -716 -742 -992 l-84 -98 -4923 0 -4923 0 -124
93 c-288 217 -486 354 -706 487 l-142 87 466 6 c256 4 469 9 472 12 3 4 15
619 27 1368 12 749 24 1517 28 1707 l6 345 -362 -366 c-341 -345 -371 -372
-488 -450 -399 -263 -812 -377 -1260 -349 -417 26 -732 124 -1025 318 -137 91
-345 299 -442 443 -185 273 -307 586 -368 947 l-25 144 0 1870 0 1870 103 -6
c268 -18 502 -61 727 -135 382 -126 757 -346 1046 -614 33 -30 201 -219 374
-421 172 -201 315 -364 317 -362 2 1 8 227 13 502 6 274 24 1141 40 1927 17
785 30 1482 30 1549 l0 122 -357 -355 c-270 -268 -384 -374 -463 -431 -311
-224 -711 -419 -1085 -527 -229 -66 -578 -131 -705 -131 l-40 0 0 1846 0 1847
62 156 c138 350 347 716 537 943 252 300 559 495 889 563 375 79 836 -7 1303
-241 303 -151 462 -262 872 -604 l332 -278 3 57 c3 61 -48 3134 -52 3138 -1 2
-1659 2 -3683 1 l-3680 -3 290 -315 c354 -385 435 -495 561 -761 94 -199 145
-378 165 -579 25 -253 79 -1783 111 -3120 76 -3247 85 -7403 20 -9145 -26
-691 -52 -959 -105 -1102 -61 -161 -217 -417 -390 -638 -47 -60 -160 -194
-252 -298 -147 -166 -168 -186 -182 -173 -9 7 -257 190 -551 406 -294 216
-536 394 -538 395 -4 4 216 3166 224 3212 l5 33 388 2 388 3 -216 1025 -217
1025 413 5 413 5 -199 405 -198 405 189 3 189 2 -195 384 -195 383 57 39 c77
53 244 220 321 322 286 378 462 890 510 1485 24 286 9 679 -35 915 -207 1125
-1020 2020 -2109 2323 -131 36 -162 55 -198 124 -60 115 10 267 171 373 318
209 551 548 636 926 l23 99 624 219 c343 121 627 222 631 226 4 4 -297 83
-670 177 l-677 169 -58 115 c-256 514 -764 832 -1292 808 -347 -15 -638 -148
-900 -411 -134 -134 -224 -259 -301 -418 -25 -54 -54 -100 -63 -102 -9 -3
-290 -71 -626 -151 -778 -186 -778 -186 -768 -195 4 -4 302 -92 660 -196 l653
-188 6 -36 c38 -236 125 -456 258 -650 106 -154 315 -348 469 -434 120 -67
167 -178 118 -275 -21 -41 -124 -141 -145 -141 -32 0 -242 -67 -365 -116 -901
-362 -1646 -1233 -1880 -2197 -56 -232 -66 -319 -66 -597 0 -292 13 -399 75
-645 127 -502 407 -984 796 -1371 l132 -131 -218 -414 -219 -414 210 -5 209
-5 -230 -405 -229 -405 384 -3 384 -2 -5 -28 c-3 -15 -87 -477 -188 -1027
l-183 -1000 386 -5 386 -5 127 -1535 c70 -844 127 -1549 127 -1566 l1 -30
-382 -148 c-620 -240 -1050 -412 -1114 -444 -89 -45 -165 -106 -204 -163 -35
-52 -35 -52 -35 -163 0 -93 4 -119 22 -158 29 -64 102 -134 170 -164 118 -52
19 -78 1368 361 670 218 1226 394 1236 392 9 -3 286 -179 615 -392 451 -293
610 -390 642 -397 55 -10 849 -14 880 -4 14 5 25 18 28 36 l6 28 1427 6 c784
3 1588 9 1786 12 l360 6 -77 -54 c-193 -134 -318 -267 -444 -471 l-81 -132
-3779 -3 -3780 -2 -279 197 c-703 493 -1007 668 -1385 794 -257 85 -458 115
-715 106 -174 -6 -288 -23 -434 -62 -474 -128 -843 -476 -971 -917 l-34 -118
-3967 0 -3967 0 -259 169 c-276 180 -525 332 -690 421 l-103 55 463 7 c254 4
1077 10 1830 14 l1367 6 0 137 c0 75 11 809 25 1631 28 1693 28 1650 18 1650
-5 0 -150 -147 -323 -326 -396 -410 -497 -491 -792 -634 -312 -151 -589 -209
-928 -196 -771 29 -1314 345 -1642 956 -124 230 -219 528 -262 821 -14 94 -16
332 -16 1958 l0 1851 83 0 c102 0 307 -23 438 -50 482 -99 953 -337 1336 -677
39 -35 215 -231 390 -434 l318 -371 6 44 c3 23 9 241 13 483 4 242 22 1142 40
2000 19 858 32 1562 29 1564 -2 3 -158 -148 -346 -335 -188 -188 -378 -368
-422 -401 -432 -325 -962 -555 -1505 -653 -93 -17 -341 -50 -372 -50 -5 0 -8
831 -8 1846 l0 1847 62 156 c34 86 106 244 159 351 169 335 296 519 508 731
301 300 607 440 996 455 401 16 860 -125 1324 -406 190 -114 295 -194 641
-484 l305 -256 3 122 c3 125 -32 2421 -44 2847 l-6 234 -5000 -6 c-2750 -3
-5002 -7 -5004 -10 -2 -2 2 -94 11 -203 31 -420 39 -667 39 -1209 1 -577 -7
-773 -45 -1140 -25 -249 -43 -366 -52 -340 -9 28 -70 356 -106 570 -97 573
-222 1492 -291 2120 -11 105 -23 200 -25 213 l-5 22 -549 0 -548 0 9 53 c14
70 3 314 -17 407 -80 367 -295 659 -596 809 l-81 41 24347 0 24346 0 77 26
c230 77 403 262 467 499 25 93 30 275 11 365 -50 239 -238 439 -487 519 l-64
21 -33340 -2 -33340 -3 -80 -25 -80 -26 -83 34 c-97 39 -237 76 -346 91 -104
15 -384 12 -471 -4z m491 -369 c369 -80 615 -312 704 -663 72 -278 -52 -691
-332 -1105 -21 -31 -38 -61 -38 -66 0 -6 466 -468 1035 -1028 570 -560 1034
-1021 1033 -1024 -2 -4 -64 -55 -138 -115 -279 -224 -565 -486 -720 -659 -52
-58 -98 -105 -101 -103 -3 1 -444 427 -980 947 -536 520 -993 963 -1016 983
l-41 38 -124 -60 c-375 -182 -682 -224 -958 -131 -170 58 -302 140 -431 270
-82 81 -103 109 -142 190 -66 133 -81 200 -80 345 3 358 162 659 418 792 139
72 161 75 507 80 l307 5 6 31 c2 18 6 149 8 292 4 244 6 266 30 353 52 183
120 311 220 418 99 107 239 186 377 213 30 6 64 13 75 15 42 10 313 -3 381
-18z m16020 -116 c-175 -141 -316 -334 -405 -553 l-38 -92 -7245 -3 -7245 -2
-7 69 c-16 180 -115 415 -243 584 l-44 57 7651 0 7651 0 -75 -60z m51230 31
c155 -73 220 -196 194 -364 -20 -133 -81 -227 -182 -283 l-53 -29 -24620 -3
-24620 -2 -22 86 c-27 105 -93 245 -162 348 -53 77 -167 201 -231 249 l-35 27
24835 0 24835 0 61 -29z m-50206 -146 c247 -65 433 -231 531 -475 19 -49 23
-88 35 -369 7 -172 16 -316 19 -320 4 -3 135 -9 293 -13 341 -10 417 -21 542
-84 130 -66 222 -152 299 -279 91 -151 144 -384 124 -545 -30 -233 -158 -484
-338 -666 -97 -98 -188 -158 -295 -195 -85 -30 -263 -33 -390 -6 -205 43 -518
172 -730 300 l-75 46 -735 -732 c-404 -403 -871 -867 -1037 -1031 l-301 -299
-339 340 c-186 188 -399 396 -473 463 -74 67 -136 125 -137 129 -2 3 469 467
1046 1031 l1048 1025 -54 107 c-140 283 -213 540 -199 706 19 228 137 476 305
641 125 123 280 203 456 237 92 18 317 11 405 -11z m-1527 -987 c9 -153 61
-356 138 -544 l30 -71 -248 -245 c-595 -586 -1693 -1658 -1699 -1658 -3 0 -84
57 -178 128 -1474 1098 -3259 1716 -5117 1771 -1012 30 -1970 -96 -2926 -385
-978 -295 -1883 -751 -2759 -1389 l-62 -45 -951 936 -950 935 68 132 c77 151
140 306 171 422 12 44 23 86 25 93 4 9 1458 12 7228 12 l7224 0 6 -92z m-6913
-988 c2459 -134 4681 -1248 6260 -3140 916 -1098 1562 -2454 1839 -3863 45
-229 97 -555 89 -562 -3 -3 -86 23 -184 59 -741 264 -1539 487 -2403 671 -118
25 -215 46 -216 48 -1 1 -15 40 -30 87 -119 363 -344 835 -586 1228 -350 570
-841 1122 -1384 1559 -878 705 -1956 1157 -3085 1292 -452 55 -982 57 -1440 6
-1009 -113 -2006 -492 -2835 -1080 -1037 -735 -1806 -1747 -2240 -2945 -36
-99 -65 -186 -65 -193 0 -8 -105 -36 -312 -81 -867 -191 -1752 -445 -2373
-680 -65 -25 -120 -44 -121 -43 -5 7 61 418 96 599 270 1388 863 2670 1745
3773 672 840 1494 1549 2436 2101 1172 686 2518 1088 3894 1163 221 12 703 12
915 1z m57170 -405 c327 -85 603 -159 613 -163 18 -7 -84 -126 -478 -557 -21
-22 -103 -113 -183 -202 -80 -90 -148 -163 -151 -163 -5 0 -47 149 -118 420
-14 52 -27 97 -29 99 -9 10 -338 -169 -594 -323 -1031 -619 -2014 -1464 -2729
-2346 -662 -816 -1137 -1705 -1401 -2620 -142 -493 -230 -1031 -247 -1502 l-6
-178 1126 0 1127 0 0 570 0 570 230 0 230 0 0 -570 0 -570 438 0 439 0 17 83
c10 45 35 135 57 200 244 738 869 1094 1434 818 195 -96 342 -231 477 -441 96
-148 160 -294 208 -475 52 -194 64 -291 64 -510 -1 -208 -13 -313 -55 -480
-41 -160 -142 -411 -160 -399 -5 3 -6 -1 -4 -8 3 -8 -3 -23 -14 -35 -11 -11
-18 -23 -16 -25 2 -2 -5 -4 -15 -4 -11 0 -20 6 -20 13 0 7 7 10 15 7 10 -4 13
-2 10 8 -3 8 -12 15 -20 15 -8 0 -12 -3 -10 -7 2 -3 0 -12 -6 -20 -7 -13 -9
-12 -9 3 0 9 -5 17 -11 17 -5 0 -7 -4 -4 -10 9 -14 -8 -13 -23 2 -9 9 -7 15 6
25 15 13 15 13 -4 4 -12 -6 -25 -7 -30 -3 -5 4 -2 -1 5 -10 12 -16 11 -18 -3
-18 -10 0 -14 -4 -11 -10 3 -5 0 -10 -8 -10 -20 0 -31 31 -15 43 9 6 8 7 -4 3
-10 -3 -20 -1 -23 4 -4 6 -11 10 -16 10 -12 0 -1 -42 14 -51 12 -9 0 -29 -18
-29 -7 0 -15 -6 -18 -12 -3 -7 -5 -4 -4 8 1 16 6 20 21 16 13 -4 17 -2 11 7
-4 8 -18 11 -36 7 -15 -3 -31 -1 -34 4 -3 6 1 7 9 4 11 -4 16 0 16 15 0 13 -6
21 -17 21 -16 0 -16 -2 -3 -11 12 -9 10 -10 -8 -6 -18 4 -22 2 -18 -9 3 -8 0
-14 -7 -14 -8 0 -7 -4 3 -11 13 -9 13 -10 0 -6 -9 2 -14 13 -12 28 l3 24 -16
-22 c-9 -13 -22 -20 -31 -16 -11 4 -14 0 -10 -21 3 -15 1 -24 -3 -21 -7 4 -8
21 -2 59 0 5 9 2 18 -5 14 -12 16 -12 8 0 -6 10 -4 12 5 6 8 -5 11 -4 6 3 -3
6 -17 9 -30 6 -13 -2 -47 -5 -75 -7 -33 -1 -51 -6 -51 -14 0 -7 -5 -13 -10
-13 -7 0 -7 6 0 19 7 13 17 18 32 14 22 -5 22 -5 4 9 -18 14 -17 18 22 119
115 296 169 602 142 814 -50 401 -333 666 -708 665 -295 -1 -626 -256 -942
-727 -49 -72 -116 -181 -150 -242 l-62 -111 -369 0 -369 0 -1 -252 c-1 -139
-1 -259 0 -265 1 -7 -3 -13 -9 -13 -6 0 -8 5 -5 10 7 12 -5 13 -23 2 -8 -5
-10 -16 -6 -28 4 -10 4 -16 -1 -12 -4 4 -14 3 -22 -4 -10 -8 -12 -8 -8 3 7 19
-10 43 -24 35 -6 -4 -9 -11 -6 -16 3 -4 -5 -6 -17 -2 -15 3 -19 2 -14 -7 4 -6
4 -11 -1 -10 -4 1 -10 1 -13 -1 -25 -9 -47 -7 -47 4 0 8 5 12 11 10 6 -2 22 5
36 16 l25 20 -35 -11 c-19 -6 -40 -11 -47 -13 -7 -1 -20 -10 -31 -19 -14 -13
-21 -14 -31 -4 -10 9 -17 7 -36 -15 -18 -21 -25 -24 -29 -13 -3 9 1 15 10 15
9 0 12 5 8 12 -5 7 -2 9 7 4 8 -4 5 0 -5 8 -26 21 -42 20 -25 -1 8 -9 9 -14 2
-10 -6 4 -14 1 -16 -5 -3 -7 -6 -2 -7 12 -1 23 -2 23 -10 5 l-9 -20 -1 20 c-2
11 -2 24 -1 29 1 5 -5 4 -13 -3 -9 -7 -14 -17 -11 -21 3 -5 0 -12 -6 -16 -8
-4 -9 -3 -5 4 4 7 3 12 -3 12 -5 0 -12 -8 -14 -17 -4 -14 -5 -12 -6 5 0 12 4
22 9 22 16 0 12 17 -6 24 -8 3 -12 2 -9 -4 3 -6 1 -10 -4 -10 -8 0 -11 84 -11
260 l0 260 -1121 0 -1122 0 7 -107 c4 -60 11 -153 16 -208 5 -55 12 -125 14
-155 l4 -55 -48 0 c-27 0 -46 -3 -44 -7 3 -4 -2 -5 -11 -2 -11 5 -18 0 -22
-16 -3 -13 -8 -17 -13 -11 -4 8 -15 5 -32 -9 -28 -21 -50 -28 -30 -8 17 17 -5
53 -24 37 -11 -9 -14 -8 -15 7 -1 18 -2 18 -6 1 -5 -18 -51 -42 -61 -32 -3 3
0 5 7 5 7 0 9 5 5 12 -4 7 -3 8 4 4 7 -4 12 -5 12 -2 0 3 -10 10 -21 17 -13 7
-19 7 -15 1 3 -6 2 -13 -4 -17 -5 -3 -10 -1 -10 5 0 7 -6 10 -12 8 -7 -3 -13
-10 -13 -16 0 -17 -12 -24 -21 -11 -5 8 -3 10 6 4 8 -5 11 -4 6 3 -4 6 -13 9
-21 6 -8 -4 -13 -10 -10 -14 3 -4 -3 -14 -13 -21 -14 -11 -15 -11 -5 1 10 11
10 17 0 29 -9 12 -9 13 0 7 9 -5 11 -2 7 9 -5 12 -9 13 -20 4 -10 -8 -14 -8
-14 0 0 6 -4 11 -8 11 -10 0 -8 -42 3 -61 7 -12 6 -12 -7 -1 -9 8 -14 20 -11
27 3 10 -1 13 -16 10 -11 -2 -23 0 -26 6 -4 5 4 9 17 9 17 0 20 2 9 9 -19 12
-47 -6 -47 -30 0 -13 5 -18 16 -14 11 5 12 3 3 -6 -13 -13 -37 -3 -28 12 4 5
3 9 -2 10 -4 0 -19 2 -32 5 -24 4 -24 4 -6 -16 10 -11 15 -20 12 -20 -17 0
-22 3 -20 10 4 15 -64 82 -72 71 -9 -16 4 -33 21 -27 8 3 14 1 14 -4 0 -6 -7
-10 -16 -10 -8 0 -12 -5 -9 -11 4 -6 13 -8 19 -6 7 3 13 -1 13 -9 0 -19 -11
-18 -30 4 -10 10 -14 23 -10 28 5 5 -2 0 -14 -10 -20 -17 -23 -17 -29 -3 -3 9
-13 14 -22 11 -15 -5 -15 -4 1 9 9 8 17 18 17 22 0 5 -8 1 -18 -8 -10 -10 -22
-14 -25 -10 -4 3 -7 2 -7 -3 0 -11 30 -39 45 -41 5 -1 11 -7 14 -14 2 -7 -1
-9 -8 -5 -19 12 -33 -4 -19 -22 12 -15 11 -16 -5 -3 -9 7 -16 21 -15 30 2 10
-6 17 -21 19 -19 3 -21 6 -10 13 11 7 8 9 -9 9 -13 0 -20 4 -17 10 10 16 -5
12 -23 -6 -15 -15 -17 -15 -26 5 -5 11 -13 21 -19 21 -5 0 -4 -7 3 -15 10 -12
8 -13 -10 -10 -17 3 -20 1 -15 -13 5 -14 4 -15 -6 -4 -7 6 -20 12 -28 12 -11
0 -11 -3 3 -13 13 -10 14 -14 5 -14 -8 0 -24 -3 -36 -7 -18 -6 -22 -3 -20 14
1 11 7 20 14 20 7 0 13 4 13 10 0 5 8 7 18 3 18 -7 17 -5 -11 17 -15 11 -18
11 -15 0 2 -8 -1 -15 -7 -15 -5 -1 -18 -5 -28 -10 -26 -11 -31 0 -10 20 11 12
13 17 4 14 -8 -3 -22 -20 -32 -38 -17 -31 -18 -32 -29 -12 -13 26 -45 29 -36
4 5 -16 4 -16 -8 1 -8 10 -20 15 -26 11 -8 -5 -6 -11 6 -19 13 -10 14 -15 4
-21 -8 -5 -11 -4 -7 2 4 6 1 13 -7 16 -24 9 -26 -20 -3 -38 12 -9 15 -13 7 -9
-33 15 -40 26 -30 44 8 15 6 20 -10 25 -12 4 -17 11 -14 18 4 7 4 9 0 5 -4 -3
-8 -10 -8 -15 -2 -19 -33 -31 -52 -21 -16 9 -23 6 -39 -13 l-20 -24 7 25 c5
21 3 20 -9 -5 l-14 -30 2 27 c1 27 20 43 37 33 4 -3 6 4 3 15 -5 18 -8 19 -22
7 -9 -8 -27 -18 -41 -22 -24 -7 -24 -7 -5 9 23 18 13 21 -16 5 -11 -5 -17 -14
-14 -19 3 -5 1 -12 -5 -15 -6 -4 -9 -1 -8 7 2 7 -8 14 -21 16 -15 2 -21 0 -17
-7 7 -11 -3 -15 -41 -13 -13 1 -23 -3 -23 -8 0 -6 -5 -10 -11 -10 -8 0 -7 6 2
17 12 15 12 16 -4 10 -10 -4 -23 -7 -28 -7 -6 0 -8 -4 -4 -9 3 -5 -8 -9 -25
-9 -21 1 -27 4 -18 9 11 7 11 9 0 9 -7 0 -11 4 -8 9 3 5 -1 11 -8 14 -9 4 -16
-1 -18 -11 -4 -16 -15 96 -39 370 -6 62 -13 309 -16 549 -6 441 1 638 33 949
204 2003 1185 3682 2907 4976 979 735 2300 1374 3465 1674 23 6 42 17 42 24 0
7 -31 97 -70 200 -38 104 -70 192 -70 197 0 5 6 6 13 4 6 -2 280 -74 607 -160z
m-45756 -247 c246 -2121 530 -3518 715 -3518 11 0 44 27 78 64 224 245 356
823 403 1765 19 385 10 1343 -16 1649 l-6 72 1247 0 1246 0 -39 -57 c-81 -119
-133 -255 -157 -408 -32 -207 -136 -1907 -190 -3105 -65 -1462 -111 -3346
-115 -4763 -1 -206 -4 -246 -15 -237 -7 6 -11 21 -9 33 3 13 1 16 -2 7 -8 -17
-54 -62 -54 -53 0 4 -7 -2 -15 -13 -8 -10 -15 -14 -14 -9 3 25 -2 35 -20 35
-11 0 -21 -5 -23 -12 -3 -7 -7 -5 -11 6 -4 9 -3 15 1 12 5 -3 9 1 9 8 0 7 -6
13 -12 13 -7 0 -12 -11 -11 -24 1 -12 -3 -22 -9 -22 -5 1 -9 5 -7 10 1 5 -5 9
-14 9 -10 0 -14 5 -10 15 5 13 2 14 -16 4 l-21 -11 24 -14 c23 -13 23 -13 -11
-7 -19 3 -38 11 -42 17 -5 7 -8 7 -8 0 0 -5 6 -16 13 -23 10 -11 9 -12 -2 -6
-7 4 -16 2 -21 -5 -5 -8 -9 -7 -13 5 -4 9 -3 13 3 10 6 -3 10 -1 10 4 0 14 -6
14 -32 0 -16 -8 -22 -8 -29 2 -4 8 -14 14 -21 15 -34 3 -39 5 -34 12 3 5 -1 9
-8 9 -8 0 -12 -6 -9 -14 3 -8 -2 -13 -13 -13 -13 0 -15 -3 -7 -8 7 -4 11 -17
11 -29 -2 -17 -5 -19 -20 -10 -9 6 -14 14 -10 17 4 3 8 17 7 33 l0 27 -18 -25
c-10 -14 -23 -23 -28 -20 -4 3 -25 8 -46 11 -21 2 -42 10 -48 16 -7 8 -7 9 1
5 7 -4 17 0 24 8 10 12 10 15 -1 15 -8 0 -21 -4 -29 -10 -9 -6 -20 -5 -30 3
-8 6 -4 -1 9 -16 14 -15 19 -27 12 -27 -7 0 -9 -4 -6 -10 3 -5 1 -10 -5 -10
-7 0 -10 7 -7 15 4 8 1 17 -5 21 -6 4 -8 3 -5 -2 3 -6 -7 -15 -24 -21 -16 -7
-31 -7 -34 -2 -6 8 -71 3 -87 -8 -4 -2 -5 3 -2 12 4 11 2 14 -9 9 -9 -3 -18
-12 -21 -20 -3 -8 -13 -14 -21 -14 -9 0 -13 5 -10 10 4 6 10 8 14 6 4 -3 8 1
8 9 0 8 -5 12 -10 8 -5 -3 -7 4 -3 18 l6 24 -11 -22 c-15 -29 -49 -31 -44 -3
2 11 -1 23 -7 26 -7 4 -9 -7 -6 -34 2 -29 0 -38 -8 -31 -6 5 -15 5 -20 1 -4
-4 -3 1 5 10 7 9 11 27 8 40 -4 21 -4 21 -6 -3 0 -15 -7 -29 -15 -32 -10 -4
-14 0 -11 13 5 24 -20 33 -39 15 -17 -17 -36 -20 -36 -5 0 6 5 10 12 10 6 0 8
3 5 6 -4 4 -14 1 -23 -7 -14 -12 -14 -14 2 -26 16 -11 11 -15 -13 -12 -5 1 -7
5 -6 9 2 5 -6 12 -17 15 -11 4 -17 11 -14 17 4 5 -6 2 -21 -8 l-27 -17 24 -13
c12 -7 27 -10 32 -7 5 4 6 1 2 -5 -4 -6 -13 -9 -22 -5 -9 3 -14 0 -12 -7 4
-15 -30 -22 -39 -8 -3 6 -1 8 4 5 6 -4 16 -1 22 7 9 11 7 15 -6 21 -10 5 -22
9 -28 10 -5 0 -9 7 -7 14 2 8 -3 11 -13 8 -8 -4 -15 -2 -15 3 0 6 -8 10 -17 9
-11 0 -13 -3 -5 -6 6 -2 12 -11 12 -19 0 -7 6 -11 14 -8 8 3 16 -3 19 -15 5
-19 3 -19 -18 -5 -15 10 -25 12 -30 5 -3 -6 -12 -11 -18 -11 -7 0 -6 4 3 10
13 8 13 10 -2 10 -11 0 -16 6 -13 18 2 11 -3 19 -10 19 -8 0 -12 -10 -10 -24
3 -30 -8 -29 -25 1 -7 14 -19 27 -27 30 -15 6 -10 -7 15 -36 13 -15 12 -17 -4
-16 -11 0 -26 -1 -34 -4 -8 -3 -12 -3 -7 -1 4 3 5 9 2 14 -4 5 2 6 12 3 15 -5
15 -4 3 4 -10 8 -18 8 -27 0 -19 -16 -16 -2 4 18 13 13 14 16 3 12 -8 -2 -19
-14 -25 -26 -5 -12 -18 -25 -27 -28 -11 -3 -15 -11 -11 -21 4 -11 2 -14 -5 -9
-7 4 -12 14 -12 22 0 20 -18 18 -23 -3 -2 -10 -4 -3 -4 15 0 22 3 29 8 20 5
-7 9 -9 9 -4 0 5 7 3 15 -4 12 -10 19 -10 27 -2 7 7 10 12 8 13 -3 0 -14 2
-25 4 -47 8 -57 12 -66 26 -12 18 -11 7 1 -25 8 -21 6 -26 -10 -31 -11 -4 -20
-10 -20 -15 0 -4 -7 -10 -15 -14 -25 -9 -17 10 10 24 28 15 34 33 8 23 -16 -6
-16 -5 -4 10 9 11 10 17 2 17 -6 0 -11 -5 -11 -11 0 -5 -4 -7 -10 -4 -5 3 -7
0 -4 -8 3 -8 0 -18 -7 -23 -8 -5 -10 -3 -4 6 5 9 1 11 -16 6 -13 -3 -18 -3
-11 0 6 3 12 13 12 21 0 14 -2 14 -17 1 -10 -8 -27 -18 -37 -22 -16 -5 -17 -4
-6 9 7 8 9 15 5 15 -4 0 -2 7 5 15 9 10 9 15 1 15 -10 0 -15 -14 -12 -33 1 -5
-4 -7 -11 -4 -7 2 -12 10 -10 16 1 7 -2 10 -8 6 -5 -3 -11 2 -11 12 -1 17 -2
17 -6 1 -2 -10 3 -25 11 -34 9 -8 16 -21 16 -27 0 -8 -3 -8 -9 1 -4 7 -12 12
-17 10 -16 -4 -54 22 -54 38 0 13 -7 11 -37 -8 -21 -12 -39 -22 -40 -20 -8 6
-23 0 -23 -9 0 -8 4 -8 14 0 10 8 16 9 21 1 3 -5 2 -10 -4 -10 -5 0 -16 -3
-24 -6 -9 -3 -16 3 -20 16 -4 15 -10 19 -19 14 -9 -6 -9 -2 2 12 8 10 10 16 6
12 -5 -4 -15 -3 -23 4 -12 10 -13 7 -8 -15 6 -21 4 -25 -12 -22 -10 2 -22 4
-27 4 -4 1 -6 8 -2 16 3 8 2 15 -3 15 -5 0 -11 -8 -14 -19 -3 -12 -12 -18 -28
-16 -13 1 -30 3 -37 4 -7 0 -10 6 -7 11 3 6 1 10 -5 10 -6 0 -10 -6 -9 -12 3
-28 -2 -38 -18 -38 -13 0 -14 3 -5 12 14 14 16 32 3 24 -4 -3 -17 1 -27 9 -27
20 -36 18 -32 -7 2 -18 -2 -23 -20 -24 -21 -1 -22 0 -7 22 11 17 12 25 3 30
-6 4 -8 3 -4 -4 3 -6 -7 -16 -23 -23 -16 -7 -28 -16 -25 -20 2 -4 -3 -9 -11
-13 -8 -3 -17 -1 -20 5 -4 5 -11 6 -17 3 -7 -4 -8 -2 -4 5 4 6 11 9 16 6 5 -3
11 -1 15 5 3 5 0 10 -7 10 -7 0 -24 3 -38 7 -14 3 -22 3 -18 -2 8 -8 -15 -35
-29 -35 -5 0 -15 6 -22 13 -6 6 -16 13 -22 13 -5 1 -12 2 -16 3 -4 0 2 8 13
17 18 14 17 14 -6 2 -14 -7 -28 -12 -32 -13 -3 0 -10 -4 -15 -9 -4 -5 -3 -6 4
-2 6 3 14 2 18 -4 4 -6 9 -9 13 -6 4 2 14 -4 24 -13 15 -15 15 -16 -7 -16 -13
0 -21 3 -18 8 2 4 -1 7 -6 7 -6 0 -11 -6 -12 -12 0 -8 -3 -7 -6 2 -15 36 -72
58 -81 31 -3 -8 0 -11 7 -7 6 4 11 3 11 -2 0 -5 -12 -9 -27 -9 -16 -1 -37 -3
-48 -6 -11 -2 -28 3 -39 12 -17 15 -19 14 -33 -6 -9 -13 -20 -23 -25 -23 -5 0
-2 10 6 22 18 26 21 48 5 48 -5 0 -8 -3 -6 -7 2 -5 -14 -24 -37 -43 -22 -19
-37 -30 -33 -23 4 6 0 18 -8 26 -11 12 -12 16 -2 20 7 2 2 9 -12 16 -13 7 -21
9 -17 3 3 -5 -4 -18 -17 -28 -18 -16 -20 -16 -8 -1 12 16 11 17 -10 13 -13 -3
-28 -5 -32 -5 -5 -1 -6 -5 -3 -9 3 -5 -1 -9 -9 -9 -8 0 -13 3 -11 6 2 3 1 13
-3 22 -5 14 -8 14 -26 -4 -11 -11 -14 -17 -6 -12 9 5 12 3 9 -6 -3 -8 -11 -15
-19 -15 -8 -1 -16 -3 -19 -4 -19 -7 -39 -7 -34 1 3 5 8 7 12 5 4 -2 13 2 19
10 19 20 -3 27 -30 9 -20 -13 -24 -13 -24 0 0 8 4 12 8 10 9 -6 34 24 25 32
-3 3 -6 1 -6 -5 0 -6 -7 -9 -15 -6 -8 4 -15 2 -15 -2 0 -5 -4 -15 -9 -23 -8
-12 -12 -13 -26 -1 -9 7 -36 13 -61 12 -33 0 -44 3 -40 13 3 9 -2 11 -15 8
-25 -7 -25 -8 15 -32 40 -25 47 -26 40 -6 -4 8 -1 15 5 15 12 0 15 -32 5 -43
-4 -3 -16 0 -27 8 -15 11 -24 12 -34 3 -10 -8 -12 -7 -8 4 4 9 0 15 -10 15 -9
0 -14 -6 -11 -13 3 -8 0 -16 -7 -20 -7 -4 -9 -4 -6 0 8 9 -29 50 -53 59 -10 3
-18 2 -18 -3 0 -5 -7 -7 -15 -4 -8 4 -15 2 -15 -4 0 -5 11 -9 24 -8 14 0 25
-3 25 -9 0 -5 -11 -9 -25 -8 -13 1 -22 -2 -19 -7 4 -6 1 -10 -4 -10 -10 0 -16
21 -12 43 1 10 -7 9 -30 -4 -14 -7 -18 -17 -14 -32 6 -21 6 -22 -9 -3 -17 21
-21 41 -8 32 5 -3 9 1 9 9 0 11 -4 12 -14 4 -9 -9 -14 -7 -19 5 -3 9 -10 13
-16 10 -5 -3 -1 -12 9 -20 16 -12 14 -12 -13 -5 -17 5 -37 5 -45 1 -18 -12
-29 -3 -22 17 6 15 5 16 -9 3 -13 -12 -13 -17 -1 -28 20 -21 15 -26 -9 -9 -13
8 -22 22 -20 30 2 11 -6 15 -31 14 -26 -1 -32 -4 -23 -13 7 -7 17 -9 27 -3 11
5 16 4 16 -6 0 -19 -69 -13 -104 10 -14 9 -22 12 -19 6 4 -6 0 -14 -9 -17 -11
-5 -13 -10 -5 -19 9 -11 7 -12 -9 -8 -12 3 -21 10 -21 16 0 6 -7 2 -16 -9 -11
-13 -14 -14 -11 -3 3 9 -4 21 -16 29 -12 7 -19 9 -15 5 4 -4 3 -16 -2 -26 -7
-12 -6 -19 2 -21 16 -6 18 -35 2 -35 -7 0 -13 3 -12 6 2 23 -4 32 -18 27 -8
-3 -12 -2 -9 4 3 5 -3 18 -15 30 -11 11 -20 15 -20 9 0 -5 -4 -8 -9 -4 -5 3
-12 1 -16 -5 -3 -5 -3 -10 2 -10 4 0 9 -11 9 -25 1 -14 -2 -25 -8 -25 -5 0 -7
4 -4 9 8 12 -13 28 -47 36 -16 4 -26 13 -24 20 4 8 -3 10 -19 7 -13 -2 -24
-11 -24 -18 0 -8 -7 -14 -15 -14 -8 0 -15 5 -15 10 0 6 -5 10 -11 10 -5 0 -7
-4 -4 -10 3 -5 -1 -10 -10 -10 -12 0 -15 5 -11 16 5 14 4 15 -9 4 -13 -11 -14
-10 -10 3 4 8 2 18 -4 22 -6 3 -11 -1 -11 -9 0 -9 -6 -16 -14 -16 -21 0 -46
-28 -40 -45 4 -8 2 -15 -3 -15 -5 0 -9 10 -10 22 -1 12 -9 25 -17 30 -9 5 -13
16 -9 26 5 14 3 15 -7 5 -10 -10 -11 -15 -1 -27 9 -11 9 -16 0 -22 -8 -4 -9
-3 -5 4 4 7 3 12 -3 12 -5 0 -11 -5 -13 -12 -3 -7 -7 -5 -11 6 -4 9 -3 15 1
12 5 -3 9 2 9 10 0 10 -12 4 -36 -18 -19 -18 -30 -26 -23 -17 16 22 2 33 -15
11 -8 -9 -11 -11 -7 -3 6 11 3 13 -12 7 -10 -4 -21 -8 -24 -9 -3 -1 -6 2 -7 7
-1 5 -7 13 -15 17 -9 6 -9 9 -1 9 6 0 14 -4 17 -9 3 -5 15 -7 26 -4 11 3 17 9
14 15 -3 5 -14 6 -24 3 -10 -3 -22 -1 -26 6 -4 8 -11 4 -20 -12 -9 -18 -9 -26
-1 -31 9 -6 9 -8 0 -8 -6 0 -15 5 -18 11 -5 6 -12 4 -20 -8 -7 -10 -17 -14
-22 -10 -4 5 0 14 10 21 21 16 22 26 1 26 -9 0 -18 -9 -21 -20 -3 -11 -9 -17
-14 -14 -5 3 -7 10 -4 15 4 5 1 9 -5 9 -6 0 -8 5 -5 10 3 6 1 10 -5 10 -7 0
-10 -7 -6 -15 3 -8 1 -15 -4 -15 -6 0 -10 4 -10 10 0 5 -7 7 -16 3 -13 -5 -13
-7 -2 -14 10 -7 9 -9 -4 -9 -10 0 -18 -7 -18 -16 0 -8 -5 -12 -10 -9 -8 5 -7
11 1 21 9 11 6 16 -16 24 -15 6 -32 13 -36 16 -5 3 -9 1 -9 -3 0 -5 12 -14 28
-19 23 -8 24 -11 9 -17 -10 -4 -16 -3 -13 2 3 5 -6 12 -20 15 -15 4 -33 14
-42 23 -14 14 -17 14 -27 -1 -9 -12 -14 -13 -24 -3 -7 7 -12 8 -11 2 2 -5 2
-19 1 -30 -1 -16 -3 -17 -10 -5 -6 8 -7 18 -5 22 3 4 2 8 -3 9 -4 0 -17 2 -28
4 -20 4 -20 4 -1 -11 11 -8 16 -14 10 -14 -5 0 -2 -5 6 -10 13 -8 12 -10 -2
-10 -10 0 -18 5 -18 11 0 8 -4 8 -15 -1 -8 -6 -22 -10 -32 -7 -15 4 -15 5 3 6
25 1 28 27 3 27 -10 0 -15 -5 -13 -11 3 -5 -1 -2 -9 8 -8 9 -18 17 -22 17 -4
0 -2 -6 4 -13 8 -11 6 -18 -9 -32 -11 -10 -20 -14 -20 -9 -1 5 -7 -2 -15 -16
-8 -14 -14 -19 -15 -12 0 7 -4 11 -8 8 -5 -3 -9 1 -9 9 0 8 4 12 9 9 4 -3 8
-1 8 4 0 5 10 9 22 8 11 0 23 4 25 10 4 13 -45 16 -53 3 -3 -5 -10 -9 -16 -9
-6 0 -3 8 8 19 11 11 23 15 30 10 7 -5 11 -3 11 5 0 16 -22 15 -38 -1 -6 -6
-19 -9 -28 -6 -9 3 -12 1 -6 -4 9 -7 19 -33 12 -33 -1 0 -17 -4 -35 -10 -28
-7 -32 -7 -22 5 14 17 -5 31 -23 16 -7 -5 -18 -6 -25 -2 -10 6 -10 10 0 17 22
16 84 1 72 -17 -3 -5 0 -9 5 -9 14 0 14 6 1 30 -6 12 -19 17 -35 15 -14 -1
-28 2 -31 7 -3 4 -10 6 -15 3 -5 -4 -9 -1 -9 5 0 7 -6 8 -19 0 -14 -7 -18 -17
-15 -36 4 -21 1 -25 -10 -21 -9 4 -18 2 -22 -4 -4 -6 -14 -4 -29 5 -13 9 -32
13 -42 11 -10 -3 -8 0 5 6 21 11 31 30 15 28 -5 -1 -10 0 -13 1 -26 10 -38 6
-35 -10 2 -12 -1 -17 -9 -14 -8 3 -16 -2 -19 -10 -9 -22 -37 -20 -38 2 0 14
-2 14 -9 -3 -7 -17 -9 -17 -9 -2 -1 24 -41 23 -41 -1 0 -10 -7 -19 -15 -19 -8
0 -13 3 -11 6 2 3 -2 11 -9 18 -10 10 -14 9 -19 -4 -5 -12 -9 -13 -21 -3 -9 7
-13 15 -10 19 3 3 10 -1 15 -9 8 -13 10 -12 10 3 0 9 -7 17 -16 17 -14 0 -15
32 -9 323 4 177 10 325 14 328 3 4 173 44 376 89 204 46 376 86 383 90 8 4
-146 74 -369 167 l-383 161 -2 1583 c-2 1901 -16 2734 -81 4872 l-6 219 59 -9
c32 -4 131 -8 219 -8 127 0 175 4 230 19 305 84 567 308 760 654 l47 82 448 0
448 0 6 -52z m10440 -80 c3 -68 10 -458 16 -868 5 -410 13 -817 16 -904 l6
-159 -48 36 c-396 301 -859 527 -1279 627 -723 171 -1342 3 -1845 -502 -305
-306 -564 -739 -776 -1298 l-44 -114 0 -2073 0 -2073 153 0 c843 1 1743 317
2390 840 l87 70 0 -107 c0 -223 -40 -1946 -45 -1951 -3 -3 -5 6 -5 19 0 18 -5
25 -20 25 -11 0 -20 -3 -20 -6 0 -11 -35 -8 -42 4 -5 8 -8 7 -8 -1 0 -7 -7
-13 -16 -13 -8 0 -13 4 -10 9 3 5 0 11 -8 14 -10 4 -12 0 -8 -15 4 -15 1 -19
-9 -16 -8 3 -13 10 -12 16 1 5 -4 13 -13 16 -11 4 -12 2 -4 -13 14 -27 -13
-35 -35 -11 -13 14 -14 19 -3 23 7 2 4 3 -7 1 -13 -2 -64 29 -140 86 -573 427
-1296 654 -1990 626 -88 -4 -177 -10 -197 -13 l-38 -6 0 -344 c0 -300 -2 -347
-16 -368 -9 -14 -12 -25 -6 -25 6 0 13 8 15 18 3 10 5 6 6 -11 1 -25 -1 -27
-19 -17 -11 6 -17 16 -14 25 4 8 2 15 -4 15 -18 0 -20 -24 -4 -42 14 -16 13
-18 -1 -18 -10 0 -16 5 -15 12 2 7 -3 12 -11 13 -8 0 -16 6 -19 13 -2 7 2 10
12 6 9 -3 16 -2 16 4 0 11 -25 10 -36 -1 -12 -11 -52 -8 -56 4 -3 8 -10 6 -20
-5 -9 -9 -19 -12 -22 -7 -3 5 -16 7 -28 3 -14 -3 -19 -2 -14 7 4 6 11 9 15 7
4 -3 8 1 8 8 0 9 -6 10 -23 2 -17 -8 -20 -15 -13 -28 11 -21 -8 -35 -24 -19
-9 9 -8 10 7 5 15 -6 17 -4 9 12 -6 10 -8 25 -6 32 3 6 0 12 -6 12 -6 0 -11
-9 -11 -21 0 -14 -5 -19 -17 -17 -10 2 -17 10 -15 16 3 15 -14 16 -23 2 -3 -5
-2 -10 3 -10 15 0 24 -32 12 -44 -8 -8 -9 -6 -4 8 6 16 4 18 -10 13 -10 -4
-15 -3 -11 3 3 6 1 10 -5 10 -6 0 -8 5 -4 12 5 8 2 9 -9 5 -10 -3 -17 -2 -17
4 0 6 -4 7 -10 4 -14 -9 -12 -25 3 -25 7 0 18 -10 26 -22 14 -23 14 -23 -8 -4
-11 11 -21 15 -21 10 0 -5 -4 -3 -9 4 -4 7 -17 15 -27 17 -10 2 -21 4 -24 4
-3 1 1 5 8 10 11 7 10 9 -3 14 -9 4 -13 3 -10 -3 3 -6 1 -10 -5 -10 -6 0 -20
-9 -32 -20 -25 -23 -46 -27 -28 -5 8 10 9 15 1 15 -6 0 -16 -9 -23 -19 -10
-16 -15 -18 -26 -8 -17 13 -62 18 -62 6 0 -5 -12 -4 -26 2 -21 7 -31 6 -46 -8
-18 -16 -19 -16 -12 2 6 15 4 17 -14 13 -25 -7 -29 4 -8 21 11 9 15 8 20 -5 3
-8 11 -14 17 -12 14 5 12 23 -3 23 -7 1 -12 6 -11 13 2 6 -4 9 -12 6 -8 -4
-15 -10 -15 -15 0 -5 -7 -9 -15 -9 -8 0 -14 -5 -13 -12 2 -6 -5 -14 -14 -16
-10 -2 -18 2 -18 8 0 6 6 8 13 4 6 -4 9 -4 5 1 -4 4 -2 15 5 23 8 11 8 14 0 9
-6 -4 -14 -3 -18 3 -10 16 -25 12 -25 -7 0 -15 -2 -16 -10 -3 -7 12 -9 10 -7
-7 1 -17 4 -19 14 -11 10 8 13 6 13 -10 0 -15 -5 -19 -20 -15 -11 3 -20 11
-20 17 0 7 -7 13 -15 13 -11 0 -12 -4 -5 -11 12 -12 13 -43 1 -50 -4 -3 -6 6
-3 21 3 18 1 24 -7 19 -6 -4 -11 -2 -11 5 0 7 -10 9 -26 6 -20 -3 -33 2 -49
19 l-22 24 11 -35 c6 -18 13 -31 16 -26 8 11 50 11 50 -1 0 -6 -3 -9 -6 -5 -3
3 -17 2 -31 -4 -28 -11 -59 12 -49 36 3 8 2 15 -3 15 -5 0 -11 -9 -14 -20 -3
-11 -2 -20 2 -20 4 0 7 -10 8 -22 0 -13 -1 -17 -4 -10 -3 6 -9 10 -13 7 -5 -3
-12 0 -16 6 -4 7 -3 9 3 6 6 -4 11 4 11 19 0 14 -3 22 -7 17 -3 -6 -17 -12
-30 -16 -17 -4 -21 -3 -13 5 16 16 3 39 -16 29 -17 -9 -24 -11 -42 -11 -5 0
-10 -8 -10 -17 0 -16 1 -16 13 0 11 16 13 16 24 -2 11 -18 10 -19 -15 -16 -15
2 -29 4 -32 5 -3 2 -9 2 -13 1 -5 -1 -6 3 -2 9 3 5 -1 10 -10 10 -9 0 -14 -4
-11 -9 3 -5 -12 -8 -34 -7 -28 0 -39 5 -36 13 6 16 -10 27 -19 13 -8 -14 -55
-13 -55 1 0 6 7 8 16 5 9 -3 12 -2 9 5 -7 11 -43 2 -61 -15 -8 -9 -7 -15 4
-26 14 -13 15 -12 9 3 -8 21 4 28 24 13 15 -10 15 -13 0 -26 -8 -8 -18 -13
-21 -11 -46 31 -59 44 -54 53 4 6 1 9 -7 6 -8 -3 -20 2 -27 11 -11 14 -11 14
-6 -2 5 -13 2 -16 -12 -11 -14 4 -15 3 -6 -4 11 -7 8 -11 -9 -15 -13 -4 -25
-5 -27 -2 -2 2 -8 385 -12 852 -29 2898 -116 6124 -176 6553 -32 225 -110 459
-230 689 -86 166 -166 287 -307 469 -8 9 610 12 3081 12 l3090 0 6 -122z
m20790 -120 c3 -134 11 -556 16 -938 6 -382 11 -734 13 -781 l2 -86 -75 57
c-406 307 -917 543 -1364 629 -781 151 -1456 -123 -1959 -794 -201 -269 -356
-556 -524 -972 l-68 -168 -3 -2079 -2 -2079 202 6 c547 17 1031 126 1523 342
298 131 632 334 839 511 l76 65 0 -50 c0 -170 -41 -1960 -45 -1979 -3 -13 -10
-20 -16 -16 -6 3 -19 -2 -30 -12 -18 -16 -25 -11 -20 19 2 13 -19 8 -25 -6 -4
-11 -25 -14 -53 -8 -2 1 2 8 9 16 7 8 16 12 21 9 5 -3 9 0 9 5 0 16 -12 13
-37 -8 -22 -18 -33 -48 -14 -36 5 3 12 2 15 -3 2 -4 -4 -9 -15 -9 -13 -1 -19
5 -19 18 0 12 -7 19 -20 19 -11 0 -55 28 -98 62 -224 179 -589 382 -876 488
-301 111 -642 178 -966 187 -186 6 -427 -3 -448 -16 -8 -5 -12 -108 -12 -360
-1 -303 -3 -352 -15 -347 -8 3 -14 2 -14 -2 3 -20 -3 -21 -26 -6 -14 9 -23 20
-20 24 3 5 -4 6 -15 3 -11 -3 -23 -9 -26 -14 -3 -5 1 -6 9 -3 17 6 43 -21 28
-30 -6 -4 -9 -12 -8 -19 2 -7 -1 -2 -7 11 -12 27 -30 29 -23 3 3 -12 -1 -22
-10 -26 -17 -6 -43 11 -43 29 0 6 5 4 10 -4 7 -12 9 -10 7 7 0 12 -5 19 -9 17
-4 -3 -8 0 -8 5 0 6 -4 11 -9 11 -4 0 -6 -11 -4 -24 3 -13 0 -26 -5 -30 -6 -4
-8 3 -4 16 5 22 4 22 -15 6 -23 -21 -51 -25 -35 -5 18 21 -1 41 -26 28 -12 -6
-23 -7 -26 -2 -4 5 -1 12 4 14 6 3 5 4 -2 3 -7 -1 -17 -12 -23 -24 -9 -20 -28
-32 -23 -14 3 8 -5 12 -26 12 -8 0 -17 -8 -19 -17 -2 -10 -3 -6 -1 9 3 26 -7
31 -33 15 -8 -5 -13 -3 -13 3 0 7 -7 10 -15 7 -8 -4 -17 -2 -20 3 -4 6 -1 10
6 10 7 0 10 3 6 6 -8 8 -47 -6 -47 -17 0 -6 5 -7 10 -4 6 4 16 2 23 -3 7 -6
16 -10 22 -10 5 0 11 -5 13 -11 2 -6 -3 -8 -12 -5 -9 3 -16 1 -16 -6 0 -6 -5
-8 -11 -5 -5 4 -20 -1 -32 -12 -21 -18 -21 -18 -7 1 14 18 13 19 -2 13 -10 -3
-18 -2 -18 3 0 6 5 10 11 10 8 0 8 5 -1 15 -14 17 -34 9 -26 -11 3 -8 1 -14
-3 -14 -5 0 -12 6 -14 13 -4 8 -6 7 -6 -3 -1 -8 -12 -20 -26 -27 -14 -6 -23
-7 -19 -2 7 12 -3 11 -27 -1 -16 -9 -19 -7 -19 14 0 13 7 32 16 40 8 9 11 16
5 16 -6 0 -16 -10 -22 -22 -7 -13 -14 -18 -16 -11 -2 6 -17 -1 -35 -17 -35
-33 -62 -29 -55 7 2 13 0 26 -4 29 -5 3 -9 -4 -9 -15 0 -23 -1 -24 -24 -15 -9
3 -14 10 -11 14 3 5 -4 6 -15 3 -16 -4 -18 -8 -9 -19 6 -8 16 -11 23 -7 6 3 0
-5 -14 -18 -14 -13 -27 -20 -29 -15 -2 4 2 12 10 16 10 7 10 11 0 24 -7 8 -10
20 -6 26 3 5 -1 10 -9 10 -8 0 -18 -5 -22 -12 -4 -7 -3 -8 4 -4 8 5 10 2 6 -8
-3 -9 -10 -13 -15 -10 -9 5 -13 -9 -10 -31 1 -5 -7 1 -17 14 -12 15 -24 21
-32 16 -8 -5 -11 -4 -7 1 3 5 -3 10 -13 10 -14 0 -17 -7 -15 -33 l3 -33 -28
20 c-32 23 -45 26 -34 8 6 -9 3 -9 -9 0 -9 8 -21 11 -27 7 -5 -3 -10 -2 -10 3
0 15 28 22 34 9 3 -7 2 1 -1 18 -4 16 -6 35 -6 42 0 9 -6 8 -19 -4 -10 -9 -16
-19 -13 -22 4 -3 10 1 15 9 8 12 10 10 10 -7 0 -23 -23 -32 -35 -13 -4 6 -11
5 -20 -3 -9 -8 -10 -16 -3 -24 8 -10 6 -13 -6 -13 -10 0 -15 -4 -11 -9 3 -5 2
-12 -3 -15 -4 -2 -7 15 -7 38 1 30 -2 43 -12 43 -8 0 -12 -6 -9 -14 3 -7 2
-13 -2 -13 -4 0 -14 -13 -23 -28 -17 -31 -72 -42 -61 -13 4 10 7 11 10 3 6
-19 22 -3 16 16 -5 15 -4 15 9 -1 11 -13 16 -15 19 -5 3 7 -5 21 -18 30 -26
21 -35 23 -29 6 7 -19 -90 -17 -107 1 -11 12 -10 13 2 6 12 -7 13 -6 2 6 -11
12 -14 12 -22 -1 -6 -9 -5 -17 3 -22 9 -5 9 -10 0 -19 -16 -16 -33 -2 -33 27
0 13 -4 24 -10 24 -5 0 -10 -6 -10 -12 0 -9 -4 -8 -10 2 -7 10 -10 11 -10 2 0
-7 7 -15 15 -18 25 -10 17 -21 -11 -18 -15 1 -31 9 -36 16 -7 9 -8 6 -5 -9 3
-13 1 -23 -4 -23 -4 0 -8 188 -9 418 0 405 -13 1564 -25 2202 -41 2292 -106
4416 -146 4765 -44 386 -214 783 -491 1147 l-59 78 3089 0 3089 0 7 -242z
m4471 122 c667 -103 1188 -364 1655 -830 329 -327 597 -739 766 -1177 84 -217
92 -265 104 -601 5 -163 10 -910 10 -1659 l0 -1363 -1100 0 -1100 0 14 33 c7
17 30 69 49 113 80 185 162 448 203 649 50 245 55 897 9 1265 -88 704 -349
1107 -800 1232 -71 19 -105 22 -290 23 -199 0 -215 -1 -308 -27 -192 -54 -334
-145 -449 -287 -181 -225 -279 -543 -329 -1071 -13 -137 -27 -1821 -28 -3396
-1 -1076 -6 -1378 -22 -1368 -5 2 -6 12 -3 22 5 15 4 15 -8 1 -7 -9 -19 -14
-25 -12 -7 3 -13 0 -13 -6 0 -6 10 -11 23 -12 12 0 16 -3 9 -6 -7 -3 -20 -1
-30 3 -25 11 -82 13 -76 2 3 -5 -3 -4 -14 3 -12 7 -18 17 -15 22 3 5 -4 4 -16
-2 -17 -10 -20 -9 -15 4 4 8 2 15 -3 15 -4 0 -9 -13 -9 -30 -1 -16 2 -30 7
-30 5 0 9 5 9 10 0 6 4 10 8 10 5 0 9 -6 9 -13 0 -8 -12 -13 -28 -13 -15 0
-25 4 -22 9 3 5 0 7 -8 5 -8 -3 -13 -12 -11 -19 1 -9 -3 -8 -11 4 -15 18 -28
23 -26 10 3 -17 -2 -24 -11 -18 -8 5 -7 11 1 21 6 8 8 15 3 15 -67 9 -71 8
-83 -14 -11 -21 -11 -21 -6 -1 4 14 0 24 -11 28 -12 5 -15 2 -10 -11 5 -16 4
-16 -9 1 -8 10 -13 22 -11 25 2 3 -9 6 -25 6 -17 0 -29 -5 -29 -13 0 -7 -4
-11 -9 -7 -5 3 -13 0 -16 -6 -4 -5 -13 -8 -21 -5 -8 3 -14 0 -14 -7 0 -8 -3
-8 -9 2 -5 8 -16 11 -26 7 -13 -5 -16 -2 -11 9 4 10 2 14 -5 9 -7 -4 -9 -21
-6 -41 4 -21 2 -33 -4 -31 -6 2 -10 7 -9 12 1 5 -5 13 -14 18 -9 5 -16 14 -16
20 0 7 6 6 15 -2 13 -11 14 -10 9 4 -3 9 -14 15 -23 14 -10 -2 -15 3 -15 15 1
9 -4 17 -12 17 -8 0 -14 -7 -14 -15 0 -17 -2 -18 -24 -9 -9 3 -13 11 -9 18 3
6 0 5 -8 -2 -12 -11 -12 -14 1 -22 8 -5 13 -10 10 -11 -63 -10 -70 -7 -44 22
14 16 14 17 -3 14 -10 -2 -21 -4 -25 -4 -4 -1 -5 -10 -3 -22 3 -13 0 -19 -8
-16 -7 3 -11 10 -9 17 1 6 -5 10 -15 8 -10 -2 -17 -11 -17 -21 2 -19 -12 -23
-18 -5 -2 6 -20 12 -40 13 -19 1 -40 5 -45 8 -6 4 -16 0 -23 -8 -7 -8 -17 -12
-22 -9 -6 4 -8 -3 -4 -17 3 -13 3 -18 0 -11 -5 10 -12 9 -32 -4 l-27 -17 25
28 c14 16 20 25 14 22 -7 -4 -14 0 -17 7 -3 8 -1 16 6 19 6 2 4 6 -6 10 -10 4
-16 2 -14 -6 1 -7 -5 -11 -13 -9 -11 2 -10 -2 4 -12 17 -14 17 -15 -6 -12 -13
1 -28 5 -33 8 -13 8 -36 -17 -27 -28 4 -5 0 -3 -9 4 -9 6 -20 8 -25 4 -4 -4
-3 0 4 10 16 20 -3 37 -21 19 -9 -9 -7 -11 8 -6 16 6 17 5 5 -4 -11 -7 -21 -6
-39 5 -13 9 -20 11 -17 5 4 -6 2 -11 -4 -11 -6 0 -9 -4 -6 -9 3 -5 -2 -15 -11
-22 -12 -10 -14 -10 -9 -1 4 7 1 12 -9 12 -8 0 -18 7 -21 15 -4 8 -10 12 -15
9 -10 -6 -12 9 -2 19 8 9 34 -13 28 -23 -3 -5 3 -7 12 -6 20 3 31 46 13 46 -7
0 -9 -8 -4 -22 l6 -23 -25 24 c-24 22 -27 22 -43 7 -15 -16 -70 -16 -94 -1 -5
3 -11 1 -14 -4 -3 -5 2 -12 12 -16 16 -6 16 -7 -2 -17 -16 -9 -23 -7 -38 12
-10 12 -18 18 -18 12 0 -12 -30 -25 -39 -17 -3 3 0 9 6 13 7 5 7 11 -3 20 -12
11 -14 9 -15 -10 -1 -13 -1 -27 0 -31 1 -5 -3 -6 -8 -3 -5 4 -13 1 -17 -5 -4
-8 -9 -7 -15 2 -11 17 -11 29 -1 28 19 -3 32 2 32 12 0 8 -4 8 -14 0 -10 -8
-16 -9 -21 -1 -9 14 -25 2 -19 -14 3 -8 1 -17 -5 -21 -6 -3 -11 -1 -11 5 0 7
-8 9 -19 5 -11 -3 -22 -1 -26 5 -3 5 -11 10 -16 10 -6 0 -7 -4 -4 -10 3 -5 -1
-10 -9 -10 -19 0 -21 21 -3 40 10 12 9 12 -5 1 -10 -7 -18 -23 -19 -35 0 -20
-1 -20 -10 2 -5 13 -6 29 -2 35 4 7 -1 6 -11 -2 -15 -13 -19 -13 -27 0 -8 11
-9 8 -7 -10 2 -13 -3 -26 -9 -28 -8 -3 -13 5 -14 19 -1 23 -1 23 -8 -2 -4 -14
-16 -26 -26 -28 -20 -4 -20 -3 0 12 19 14 17 15 -23 11 -54 -5 -65 -12 -58
-38 3 -13 1 -16 -5 -10 -14 14 -19 53 -7 53 6 0 9 3 5 6 -3 3 -15 -1 -27 -9
-16 -11 -18 -16 -8 -21 7 -3 4 -5 -7 -3 -26 3 -27 39 -2 43 11 1 22 6 25 10 4
4 -5 4 -20 2 l-28 -5 0 2777 c0 1830 4 2813 10 2881 58 579 292 1142 676 1624
108 135 366 395 494 496 472 375 979 594 1540 664 178 22 641 14 825 -15z
m-31684 -172 c176 -221 332 -534 394 -788 33 -137 42 -239 60 -635 164 -3718
206 -10671 75 -12490 -25 -335 -47 -431 -143 -619 -85 -167 -306 -483 -453
-649 -38 -44 -42 -45 -56 -29 -47 52 -95 192 -123 352 -38 221 -130 1807 -175
3020 -46 1247 -55 1831 -55 3550 0 1770 9 2338 60 3835 44 1286 118 2710 200
3860 26 361 40 445 90 547 28 54 62 98 77 98 4 0 26 -24 49 -52z m-6810 -236
c57 -27 125 -57 151 -68 l46 -18 6 -61 c16 -168 42 -1070 77 -2635 6 -256 13
-1247 16 -2203 l6 -1738 -39 16 c-22 9 -95 39 -164 67 -69 27 -128 53 -132 57
-5 4 -19 94 -33 201 -160 1233 -567 2403 -1213 3490 -172 289 -482 736 -676
975 l-57 70 953 948 c524 521 953 947 954 947 1 0 48 -22 105 -48z m-8521
-1827 c1657 -166 3117 -994 4102 -2325 125 -169 365 -537 355 -546 -1 -1 -27
2 -57 7 -30 5 -194 29 -365 54 -1683 243 -3439 353 -5156 324 -1015 -17 -1876
-69 -2809 -170 -509 -55 -1294 -166 -1593 -225 l-28 -6 53 89 c776 1314 2074
2279 3564 2651 369 92 621 130 1109 166 116 9 680 -4 825 -19z m32487 -4559
l-2 -348 -65 58 c-321 285 -502 661 -503 1044 0 208 38 369 130 555 83 167
214 329 368 458 l60 50 7 -734 c4 -404 7 -891 5 -1083z m2380 1756 c254 -189
417 -453 469 -760 25 -144 15 -381 -21 -521 -49 -190 -129 -356 -248 -517 -55
-74 -221 -246 -274 -283 l-33 -22 0 404 c0 674 13 1757 21 1757 4 0 43 -26 86
-58z m-34207 -892 c2949 -98 5312 -510 7395 -1290 194 -72 688 -270 698 -279
16 -15 -695 -145 -1318 -240 -591 -91 -1664 -231 -1765 -231 l-28 0 -7 108
c-21 337 -136 576 -357 743 -205 154 -359 194 -1033 268 -1972 219 -5102 270
-7545 126 -1203 -72 -2275 -202 -2626 -320 -470 -157 -765 -496 -800 -919 l-7
-85 -41 5 c-22 2 -131 13 -241 24 -503 51 -1268 159 -1945 276 -312 53 -802
143 -829 152 -20 7 0 19 135 84 805 386 2054 770 3389 1042 1634 333 3307 509
5210 550 261 6 1408 -4 1715 -14z m260 -1090 c1320 -33 2502 -103 3365 -201
472 -53 620 -85 735 -160 112 -72 178 -160 220 -294 42 -132 38 -555 -10 -990
-159 -1436 -774 -2666 -1805 -3608 -847 -774 -1971 -1316 -3115 -1501 -556
-91 -1116 -86 -1695 14 -1036 179 -2042 619 -2853 1247 -388 301 -756 674
-1044 1058 -576 766 -929 1678 -1042 2690 -39 353 -49 770 -21 880 29 109 73
184 165 276 171 172 320 231 794 309 858 141 2213 242 3776 279 477 12 2083
12 2530 1z m7880 -1027 c0 -409 -45 -1879 -85 -2803 -42 -962 -83 -1678 -175
-3100 -38 -583 -60 -789 -93 -898 l-12 -40 -861 722 c-474 396 -862 726 -863
731 0 6 58 91 128 190 566 792 999 1661 1281 2573 256 824 385 1615 407 2488
l6 261 126 25 c69 14 129 26 134 27 4 0 7 -79 7 -176z m-636 -115 c-6 -215
-13 -300 -25 -293 -5 4 -5 -5 1 -20 14 -36 12 -43 -5 -21 -8 11 -15 16 -15 10
0 -14 -20 19 -20 34 0 7 5 10 10 7 6 -3 10 -1 10 4 0 6 -4 11 -9 11 -11 0 -30
-23 -28 -34 1 -5 -8 -10 -21 -11 -15 -1 -21 3 -18 11 3 7 2 15 -2 18 -13 8
-12 -37 1 -53 9 -11 9 -13 0 -8 -6 4 -13 4 -16 0 -2 -5 -2 -2 -1 5 2 6 -1 12
-6 12 -5 0 -7 6 -5 13 3 6 1 26 -4 42 l-9 30 -1 -32 c-1 -18 -5 -33 -11 -33
-5 0 -7 8 -4 18 5 14 4 15 -5 2 -6 -8 -11 -24 -12 -35 -1 -20 -1 -20 -6 0 -5
19 -47 65 -60 65 -3 0 2 -10 13 -21 l19 -22 -32 5 c-18 2 -30 1 -27 -4 3 -4 0
-8 -6 -8 -6 0 -8 -4 -5 -10 3 -5 2 -10 -3 -10 -6 0 -13 11 -16 25 -4 17 -11
23 -23 18 -12 -5 -14 -3 -8 8 4 8 -2 4 -14 -8 -12 -13 -24 -23 -26 -23 -5 0 2
37 10 50 3 5 0 7 -7 5 -18 -7 -21 -54 -6 -73 11 -13 10 -15 -9 -10 -12 3 -24
1 -27 -6 -2 -6 -5 -3 -5 6 -1 9 -7 18 -13 21 -10 4 -10 7 0 18 15 16 16 29 2
29 -5 0 -10 -6 -10 -14 0 -8 -7 -17 -16 -20 -10 -4 -14 -14 -11 -25 3 -13 0
-18 -11 -17 -22 4 -27 25 -8 32 12 5 13 10 5 25 -5 10 -15 19 -22 18 -9 0 -9
-2 1 -6 22 -9 13 -20 -13 -15 -14 2 -22 9 -18 15 3 6 1 7 -5 3 -7 -4 -12 -2
-12 5 0 7 -3 10 -6 7 -9 -10 15 -48 29 -44 6 1 9 1 4 -1 -4 -3 -5 -9 -2 -13 3
-5 0 -12 -7 -16 -7 -4 -10 -4 -6 0 12 14 -16 34 -41 29 -24 -4 -65 23 -56 37
3 5 -5 6 -17 2 l-22 -5 21 -8 c16 -6 20 -14 16 -29 -8 -29 -21 -34 -16 -6 4
19 -1 25 -28 35 -40 14 -52 14 -44 1 4 -6 11 -8 16 -5 5 4 9 -1 9 -10 0 -9 4
-13 10 -10 6 4 7 -1 3 -12 -6 -16 -5 -16 10 -4 15 12 17 12 11 -2 -9 -25 -34
-30 -34 -7 0 11 -5 20 -11 20 -5 0 -8 -4 -4 -9 3 -5 0 -13 -6 -17 -8 -4 -9 -3
-5 4 4 7 3 12 -2 12 -6 0 -9 7 -8 16 0 9 -9 20 -22 25 -15 6 -21 5 -17 -1 3
-6 13 -10 21 -10 11 0 14 -6 9 -22 -10 -34 -23 -44 -18 -14 3 16 1 26 -7 26
-17 0 -40 26 -32 36 4 5 -1 2 -10 -5 -10 -7 -15 -17 -12 -22 3 -5 -2 -9 -10
-9 -9 0 -16 -8 -16 -19 0 -11 -5 -23 -12 -27 -7 -4 -8 -3 -4 4 3 6 -2 16 -13
21 -14 8 -21 8 -24 -2 -3 -7 -6 -4 -6 6 -1 13 4 17 18 12 11 -3 24 1 32 11 12
15 11 16 -19 10 -21 -5 -32 -4 -32 4 0 6 -5 8 -11 5 -6 -4 -8 -13 -6 -19 3 -7
0 -13 -6 -13 -7 0 -32 -10 -56 -21 -25 -12 -47 -20 -49 -17 -3 3 0 5 6 5 11 0
10 6 -15 49 -2 2 -9 -2 -18 -9 -8 -7 -12 -17 -8 -23 3 -6 1 -7 -6 -3 -9 6 -9
11 0 22 9 11 8 14 -5 14 -11 0 -16 -9 -16 -27 0 -21 -3 -24 -9 -13 -6 8 -7 18
-5 22 3 4 0 8 -6 8 -7 0 -9 7 -5 17 5 15 3 14 -13 -2 -10 -11 -17 -27 -15 -35
2 -8 -5 4 -16 28 -11 23 -23 42 -26 42 -3 0 -1 -8 4 -19 8 -15 5 -20 -16 -30
-25 -11 -25 -11 -13 6 8 10 10 15 5 10 -4 -4 -18 1 -29 10 -12 10 -15 11 -8 3
19 -22 15 -29 -14 -24 -14 3 -32 -1 -40 -7 -11 -9 -13 -9 -9 2 2 8 1 20 -4 28
-7 11 -13 11 -32 -3 -18 -12 -19 -16 -7 -16 9 0 19 6 22 13 3 6 4 -1 3 -17 -2
-23 -8 -30 -27 -33 -18 -2 -21 -1 -10 6 8 5 18 7 22 5 4 -3 8 0 8 6 0 7 -7 9
-17 6 -9 -4 -20 -1 -25 6 -6 10 -8 10 -8 1 0 -7 -7 -10 -15 -7 -8 4 -15 1 -15
-5 0 -18 -20 -12 -21 7 0 10 -3 12 -6 5 -6 -16 -30 -17 -35 -1 -2 6 -15 12
-29 14 -13 1 -18 0 -11 -2 22 -10 13 -26 -10 -18 l-23 7 20 -19 c12 -11 14
-14 6 -9 -8 6 -17 9 -20 7 -3 -1 -7 7 -7 18 -1 11 3 17 9 13 6 -3 7 -1 3 5 -4
6 -20 10 -36 8 -17 -2 -30 1 -30 5 0 5 -5 9 -12 9 -9 0 -9 -3 0 -12 17 -17 15
-28 -4 -28 -8 0 -13 4 -10 8 2 4 -13 8 -34 8 -32 0 -37 -2 -28 -13 6 -7 8 -16
4 -20 -3 -3 -6 -1 -6 5 0 6 -7 9 -15 6 -11 -4 -13 -2 -9 9 3 8 1 18 -5 22 -7
3 -8 0 -5 -9 4 -10 1 -16 -7 -16 -9 -1 -7 -6 5 -15 11 -8 15 -15 9 -15 -7 0
-18 7 -27 15 -19 19 -36 19 -36 -1 0 -8 5 -12 10 -9 23 14 8 -4 -16 -20 -15
-9 -23 -12 -20 -6 4 6 2 11 -4 11 -6 0 -8 5 -4 11 4 8 9 7 15 -2 6 -11 9 -9 9
7 0 11 -10 29 -22 40 -12 10 -18 13 -14 6 10 -17 -1 -49 -17 -49 -8 0 -14 6
-14 13 0 7 4 11 8 8 15 -9 18 14 3 27 -8 7 -14 8 -12 3 3 -9 -4 -14 -23 -14
-5 0 -7 5 -3 11 5 8 1 8 -14 0 -26 -14 -35 -14 -27 -1 3 6 1 10 -5 10 -6 0 -8
5 -4 12 5 7 3 8 -5 4 -7 -5 -10 -15 -6 -23 5 -14 3 -14 -12 -2 -9 8 -14 9 -10
2 4 -6 3 -14 -3 -18 -6 -4 -8 -11 -5 -16 4 -5 3 -9 -2 -10 -4 0 -16 -2 -25 -4
-10 -2 -16 2 -15 8 1 7 -8 12 -20 11 -13 0 -23 3 -23 8 0 4 -5 8 -11 8 -8 0
-7 -5 1 -15 7 -9 19 -14 27 -11 7 3 13 1 13 -4 0 -5 -16 -9 -36 -8 -20 1 -39
-4 -44 -11 -6 -10 -14 -9 -36 5 -16 10 -31 21 -34 25 -8 10 -44 7 -59 -5 -11
-8 -13 -8 -7 2 4 7 1 12 -8 12 -16 0 -21 12 -9 23 3 4 13 1 22 -6 14 -11 14
-10 2 6 -11 14 -17 15 -28 5 -8 -6 -12 -20 -10 -30 3 -10 1 -18 -4 -18 -5 0
-11 -11 -15 -25 -3 -14 -10 -25 -15 -25 -9 0 -1 28 14 48 6 8 6 17 -2 25 -6 8
-8 17 -4 20 3 4 -4 7 -17 7 -21 0 -22 -1 -7 -12 11 -9 14 -18 8 -27 -6 -10
-10 -10 -16 -1 -5 8 -13 3 -26 -17 -21 -31 -27 -25 -7 7 10 16 10 22 -1 32
-11 11 -12 10 -6 -1 5 -9 3 -12 -6 -9 -17 6 -50 -22 -42 -36 3 -6 0 -5 -7 1
-12 11 -11 16 6 29 16 13 14 13 -9 -1 -16 -9 -31 -14 -35 -11 -3 3 1 6 8 6 7
0 10 3 6 8 -8 7 -13 9 -46 11 -17 1 -20 8 -20 54 l0 53 328 37 c599 69 1456
189 1972 277 124 21 230 38 237 39 8 1 10 -43 7 -171z m-17091 42 c385 -65
813 -130 1182 -180 393 -52 993 -118 1018 -112 4 1 7 -8 7 -20 0 -17 -3 -19
-9 -10 -6 11 -9 9 -14 -7 -2 -11 0 -22 7 -25 7 -3 7 -5 -2 -5 -7 -1 -15 5 -18
13 -3 8 -12 12 -20 9 -10 -4 -12 0 -7 13 6 17 5 18 -12 4 -10 -8 -16 -10 -13
-5 4 6 -2 17 -13 23 -18 12 -19 11 -9 -7 8 -17 7 -24 -9 -38 -19 -15 -19 -17
-3 -31 9 -7 11 -11 5 -7 -7 3 -13 0 -14 -7 0 -7 -4 -3 -9 10 -10 24 -3 55 11
46 5 -3 9 0 9 6 0 14 -38 3 -58 -16 -16 -16 -42 -19 -42 -4 0 5 8 7 18 3 10
-4 14 -2 9 3 -12 13 -60 11 -72 -3 -9 -10 -37 -17 -58 -14 -5 0 -5 7 0 14 13
20 12 34 -3 34 -17 0 -19 -17 -1 -17 6 0 3 -6 -7 -12 -15 -8 -21 -8 -24 0 -2
7 -10 12 -18 12 -8 0 -14 5 -14 11 0 8 -5 8 -15 -1 -8 -7 -12 -17 -9 -22 4 -6
9 -6 14 2 5 9 9 9 14 1 4 -6 2 -11 -4 -11 -6 0 -9 -4 -6 -8 2 -4 -6 -8 -20 -8
-15 0 -20 4 -15 9 11 11 3 37 -11 37 -5 0 -6 -4 -3 -10 6 -10 -10 -15 -30 -10
-5 1 -16 3 -22 3 -7 0 -13 5 -13 11 0 8 -3 8 -8 0 -10 -16 -52 -28 -52 -15 0
6 -5 11 -11 11 -5 0 -8 -4 -4 -9 3 -5 0 -13 -6 -17 -8 -4 -9 -3 -5 4 5 8 -2
12 -18 13 -38 2 -44 3 -51 10 -10 11 -45 -2 -45 -17 0 -21 -11 -17 -43 14 -16
15 -28 23 -27 17 5 -21 -1 -25 -19 -16 -27 15 -36 -1 -9 -16 22 -13 22 -13 -6
-7 -20 5 -27 3 -22 -4 3 -6 2 -13 -4 -17 -16 -10 -25 46 -9 57 12 8 11 9 -1 5
-8 -2 -21 3 -28 12 -11 14 -11 13 -2 -6 6 -13 9 -23 8 -24 -2 0 -32 -3 -67 -5
-55 -5 -63 -3 -58 10 10 24 -10 29 -26 6 -11 -16 -16 -18 -20 -7 -3 10 -15 13
-31 10 -19 -4 -26 -11 -26 -29 0 -13 -5 -24 -11 -24 -6 0 -9 6 -6 13 7 17 -18
38 -31 25 -6 -6 -12 -6 -16 1 -4 6 -1 11 6 11 9 0 9 3 -2 10 -8 5 -19 10 -25
10 -5 0 -3 -5 5 -10 8 -5 11 -10 6 -10 -5 0 -3 -6 4 -14 6 -8 18 -12 26 -9 22
8 17 -5 -7 -18 -13 -7 -19 -7 -15 -1 9 16 -11 25 -31 14 -12 -7 -24 -5 -39 5
-17 11 -24 11 -30 2 -5 -8 -3 -9 5 -4 10 6 11 3 2 -14 -14 -25 -23 -28 -14 -4
5 14 1 15 -24 10 -23 -4 -35 -2 -45 11 -12 15 -11 16 5 3 9 -8 17 -9 17 -3 0
6 -6 12 -12 15 -16 5 -39 -3 -34 -12 3 -4 -13 -7 -35 -8 -24 -1 -39 3 -39 10
0 7 -4 6 -10 -3 -5 -8 -10 -10 -10 -4 0 6 7 17 15 24 14 11 19 7 16 -12 0 -5
3 -8 8 -8 6 0 9 8 8 18 0 12 -10 18 -28 18 -21 1 -26 -2 -22 -14 4 -9 2 -13
-4 -9 -7 5 -9 -1 -6 -14 4 -16 2 -20 -8 -17 -8 3 -13 13 -11 23 3 14 1 15 -11
4 -8 -8 -13 -17 -11 -21 2 -4 -1 -10 -7 -14 -8 -5 -10 1 -7 20 6 30 1 33 -18
9 -12 -16 -15 -16 -23 -3 -5 8 -20 14 -33 15 -13 0 -24 5 -25 10 0 6 3 9 9 7
5 -1 7 2 3 8 -5 8 -11 7 -21 -1 -13 -10 -12 -14 2 -30 15 -16 14 -17 -7 -12
-17 5 -20 3 -14 -8 5 -8 4 -11 -1 -6 -5 5 -9 13 -9 18 0 5 -4 8 -10 7 -5 -2
-9 -7 -7 -12 2 -5 -4 -6 -13 -2 -18 6 -18 -21 0 -39 6 -5 8 -9 6 -8 -2 1 -12
-2 -22 -7 -12 -7 -20 -7 -24 0 -4 6 -1 9 7 8 9 -2 12 6 10 25 -2 17 2 29 12
33 8 3 14 14 13 25 -1 18 -3 18 -22 -3 -12 -13 -24 -31 -28 -42 -6 -14 -10
-16 -21 -7 -7 6 -17 7 -21 3 -5 -4 -5 -1 -1 6 5 7 14 11 22 8 8 -3 14 1 14 9
0 19 -10 19 -37 0 -20 -14 -21 -13 -16 8 3 14 2 18 -4 10 -5 -7 -19 -11 -31
-8 -16 3 -22 -1 -22 -15 0 -10 -4 -21 -9 -24 -4 -3 -6 7 -3 22 4 26 4 26 -11
7 -14 -18 -15 -18 -12 8 2 15 -1 25 -6 21 -5 -3 -7 -9 -5 -13 8 -12 -9 -31
-30 -35 -14 -3 -20 2 -21 16 -2 20 -1 20 13 2 11 -15 13 -15 8 -3 -3 10 -1 20
5 24 6 3 11 12 11 18 0 8 -4 7 -9 -2 -5 -8 -17 -16 -27 -17 -9 -2 -24 -10 -32
-18 -14 -14 -14 -16 1 -21 16 -7 13 -35 -4 -35 -4 0 -6 7 -3 15 6 15 -4 19
-36 16 -13 -2 -13 -1 0 9 13 9 13 12 -4 25 -23 17 -37 11 -30 -13 3 -9 -1 -6
-9 7 -9 15 -17 20 -21 12 -4 -6 -2 -11 5 -11 7 0 10 -3 6 -6 -3 -4 -14 -4 -23
0 -12 5 -13 10 -6 19 8 10 6 13 -11 14 -15 2 -18 0 -9 -6 11 -7 11 -9 -1 -14
-8 -3 -19 -1 -24 4 -6 6 -14 4 -23 -6 -8 -10 -9 -15 -1 -15 6 0 11 5 11 12 0
6 2 9 5 6 8 -8 -6 -39 -15 -33 -4 3 -11 -3 -15 -13 -6 -16 -7 -16 -17 1 -8 15
-17 18 -44 12 -35 -6 -41 0 -23 25 9 13 10 13 6 -1 -4 -12 0 -15 19 -11 27 5
33 20 7 18 -12 -1 -17 6 -16 19 1 19 1 19 -11 3 -7 -10 -16 -14 -20 -10 -5 4
-6 -2 -4 -13 2 -14 -3 -20 -19 -21 -19 -1 -21 2 -12 17 9 18 5 23 -13 20 -5 0
-8 4 -8 9 0 6 -6 5 -14 -2 -15 -14 -12 -28 5 -28 6 0 7 5 3 12 -4 6 -3 8 4 5
5 -4 8 -15 5 -26 -3 -12 3 -24 17 -34 15 -10 18 -17 10 -22 -11 -7 -47 33 -43
47 2 4 -5 4 -14 1 -9 -4 -14 -2 -11 3 3 5 -1 15 -10 23 -13 13 -14 12 -10 -10
3 -20 0 -24 -19 -25 -13 -1 -23 3 -23 8 0 6 -7 8 -15 4 -8 -3 -15 -1 -15 3 0
16 28 20 34 5 3 -9 11 -12 17 -8 17 10 -19 28 -56 29 l-30 0 -6 100 c-12 192
-11 265 6 265 9 0 147 -22 308 -50z m62587 -700 l0 -550 551 0 551 0 -5 -32
c-10 -52 -25 -260 -32 -418 -7 -160 7 -420 31 -575 82 -525 307 -937 663
-1216 l33 -26 -45 -94 c-24 -52 -79 -186 -122 -299 -175 -464 -323 -828 -502
-1233 l-106 -237 -96 92 c-872 841 -1535 1839 -1951 2938 -252 668 -414 1364
-495 2138 l-7 62 766 0 766 0 0 -550z m1369 523 c-76 -194 -143 -417 -194
-639 l-34 -149 0 408 -1 407 120 0 120 0 -11 -27z m-43029 -6216 c247 -802
450 -1460 450 -1463 0 -2 734 -4 1630 -4 1080 0 1630 3 1630 10 0 6 14 10 32
10 l32 0 -50 -37 c-162 -122 -262 -232 -412 -452 l-103 -151 -2420 0 c-1330 0
-2419 2 -2419 4 0 3 7 37 15 76 33 155 29 342 -9 488 l-13 52 738 0 c608 0
739 2 739 13 0 8 -41 123 -91 258 -114 308 -134 366 -169 515 -99 411 -138
973 -110 1574 11 237 39 608 47 630 7 20 -30 135 483 -1523z m-4585 4 c462
-386 844 -708 849 -715 5 -7 -3 -38 -20 -80 -26 -63 -54 -96 -312 -370 l-282
-301 357 -7 c197 -4 721 -10 1165 -13 l806 -7 20 -47 c30 -69 42 -142 42 -246
0 -251 -124 -531 -299 -671 -76 -61 -200 -121 -291 -141 -53 -11 -158 -18
-360 -23 -157 -3 -276 -7 -264 -8 20 -2 21 -5 16 -209 -2 -115 -5 -209 -6
-210 -3 -4 -251 51 -455 102 -310 77 -562 151 -923 271 -265 89 -316 109 -311
123 36 102 163 329 245 439 l32 42 -105 107 c-57 59 -471 478 -919 931 -448
453 -816 828 -818 833 -2 5 65 82 150 172 312 331 509 546 624 679 l117 138
51 -43 c28 -24 429 -360 891 -746z m-5673 614 c79 -117 192 -331 180 -339 -34
-21 -438 -150 -610 -195 -103 -27 -114 -28 -120 -13 -18 43 -158 447 -157 450
1 1 85 27 186 58 101 30 240 75 309 98 69 24 130 43 135 42 6 -1 40 -47 77
-101z m-4072 -10 c107 -32 197 -59 199 -61 2 -2 -39 -98 -90 -214 -89 -200
-95 -211 -118 -205 -68 17 -531 227 -531 241 0 18 159 232 222 300 l30 32 46
-18 c26 -10 135 -44 242 -75z m-4989 -90 c129 -147 517 -541 679 -689 l95 -87
-898 -892 -899 -892 75 -155 c118 -243 177 -444 177 -604 0 -203 -132 -484
-312 -665 -194 -195 -437 -292 -698 -278 -306 17 -521 150 -646 402 -73 148
-84 209 -94 517 -4 147 -11 271 -14 276 -3 5 -74 13 -158 16 -420 19 -506 34
-687 123 -102 49 -124 65 -201 142 -67 67 -95 104 -128 171 -71 142 -86 215
-86 425 0 195 12 269 69 420 90 241 299 426 557 494 111 29 158 33 270 21 339
-37 714 -169 890 -314 l65 -54 893 900 c854 860 894 899 910 881 10 -10 73
-81 141 -158z m5667 -85 c108 -22 278 -51 377 -65 99 -15 181 -28 184 -31 4
-3 -58 -444 -64 -451 -3 -5 -338 37 -465 57 -154 25 -374 68 -418 82 -40 12
-44 -1 60 228 44 96 84 188 90 203 7 18 15 26 25 23 8 -3 103 -24 211 -46z
m2538 -448 c-202 -42 -656 -106 -667 -94 -9 11 -82 443 -75 449 3 3 79 17 168
30 90 13 233 39 318 57 l155 32 81 -231 81 -230 -61 -13z m-1496 323 c91 -3
237 -2 325 4 88 5 162 7 164 5 8 -7 81 -447 75 -453 -7 -7 -840 -8 -848 -1 -3
3 8 93 24 200 43 287 37 262 68 256 15 -3 101 -8 192 -11z m1499 -1003 c256
-170 483 -319 504 -331 20 -12 37 -26 37 -30 0 -20 -560 -129 -837 -163 l-32
-4 -96 390 c-52 215 -98 401 -101 413 -6 21 5 29 45 32 8 0 224 -138 480 -307z
m-780 243 c46 -166 192 -787 187 -793 -11 -10 -134 -19 -460 -32 -234 -10
-369 -10 -625 -1 -179 7 -329 15 -332 19 -3 4 28 193 70 421 l76 413 110 -7
c200 -13 879 -4 957 13 4 1 11 -14 17 -33z m5999 -800 l821 -830 -452 -3 -452
-3 -200 102 c-249 127 -415 219 -665 369 -213 128 -800 509 -800 519 0 3 44
35 98 70 182 120 457 320 637 465 99 79 183 144 187 143 3 -1 375 -375 826
-832z m-12209 625 c183 -142 441 -325 624 -444 l143 -92 -300 -240 c-166 -133
-421 -340 -568 -462 l-267 -222 -698 2 -698 3 799 792 c518 514 803 790 810
784 6 -5 76 -59 155 -121z m4841 69 c0 -20 -122 -674 -126 -678 -10 -10 -682
75 -768 97 -27 7 -14 18 215 167 292 191 661 424 672 425 4 0 7 -5 7 -11z
m3179 -805 c75 -48 137 -87 139 -89 1 -1 -16 -54 -38 -118 -255 -740 -764
-1256 -1464 -1485 -277 -91 -513 -129 -851 -139 -1162 -31 -2087 415 -2569
1240 -39 67 -84 153 -100 190 -25 58 -27 70 -15 82 8 7 112 80 231 163 l217
150 68 -15 c256 -54 801 -130 1138 -158 1070 -89 2126 -7 2950 228 66 19 128
35 139 36 10 0 80 -38 155 -85z m990 -621 c69 -42 135 -82 146 -90 16 -11 -46
-13 -385 -12 l-405 0 180 63 c99 35 209 75 245 89 36 14 71 26 79 26 8 1 71
-34 140 -76z m48139 -1547 c-690 -415 -1437 -669 -2233 -761 -528 -60 -1178
-40 -1750 55 -597 99 -1168 276 -1726 535 -164 77 -449 223 -449 231 0 2 1410
4 3133 4 l3132 0 -107 -64z"/>
<path d="M13444 12819 c-576 -43 -1116 -359 -1439 -844 -563 -843 -382 -1952
420 -2580 526 -412 1248 -514 1876 -265 564 223 998 717 1148 1305 45 175 55
262 55 475 0 213 -10 300 -55 475 -84 329 -254 628 -498 873 -398 399 -946
604 -1507 561z"/>
<path d="M8022 12804 c-840 -130 -1495 -788 -1617 -1625 -20 -138 -20 -396 1
-540 65 -467 304 -894 675 -1204 266 -223 570 -360 934 -421 155 -26 434 -24
600 5 405 71 744 246 1034 533 290 288 471 637 542 1043 26 151 31 422 11 565
-80 558 -387 1043 -857 1353 -229 151 -492 250 -776 291 -133 20 -418 20 -547
0z"/>
<path d="M10761 9350 c-212 -56 -392 -201 -486 -394 -63 -127 -79 -197 -79
-336 0 -139 16 -209 80 -340 40 -82 60 -108 144 -191 83 -84 109 -103 191
-142 125 -60 207 -79 338 -78 235 1 449 105 591 289 98 127 147 259 157 422
12 201 -58 396 -199 552 -93 102 -247 191 -385 222 -99 22 -258 20 -352 -4z"/>
<path d="M34841 21356 c2 -2 159 -137 349 -300 190 -163 362 -318 382 -344 45
-57 131 -221 187 -356 33 -78 44 -120 51 -195 72 -719 52 -5792 -40 -10271
-40 -1954 -93 -3490 -126 -3665 -16 -83 -112 -309 -196 -458 -77 -138 -137
-226 -356 -527 l-200 -275 1035 -3 c569 -1 1498 -1 2064 0 l1029 3 -266 345
c-145 190 -298 395 -339 455 -137 204 -224 419 -247 610 -12 104 -4 1330 11
1835 6 173 15 461 21 640 5 179 13 369 16 423 l6 97 272 0 c391 0 631 21 931
81 760 151 1390 523 1838 1083 278 349 517 842 597 1236 20 97 20 138 20 3714
l0 3615 -50 149 c-109 327 -257 620 -448 885 -193 269 -482 549 -762 737 -339
228 -730 397 -1087 469 -100 21 -120 21 -2399 21 -1263 0 -2295 -2 -2293 -4z
m4632 -377 c323 -65 795 -283 1032 -476 6 -5 39 -31 75 -58 109 -82 379 -360
473 -486 166 -223 289 -450 398 -734 l54 -140 3 -3334 c2 -2668 0 -3336 -10
-3343 -10 -6 -10 -8 1 -8 11 0 11 -3 0 -17 -12 -15 -12 -16 1 -8 12 6 12 5 3
-5 -6 -7 -9 -20 -7 -29 3 -9 -1 -6 -7 6 -6 12 -20 24 -31 26 -12 4 -17 10 -13
17 5 8 -1 11 -16 8 -17 -2 -23 1 -21 11 3 12 0 12 -11 2 -10 -8 -17 -8 -20 -1
-3 6 -4 5 -3 -2 2 -7 9 -13 17 -13 8 -1 13 -7 11 -14 -1 -7 2 -10 7 -7 5 3 14
-1 21 -9 11 -13 8 -15 -14 -13 -14 1 -26 8 -26 15 0 7 -9 13 -21 13 -13 0 -19
5 -16 13 3 8 -3 13 -14 13 -11 0 -19 -6 -19 -14 0 -7 4 -11 8 -8 4 2 8 -7 9
-22 l2 -27 -10 24 c-9 23 -10 23 -30 5 -16 -14 -19 -15 -14 -2 4 9 0 18 -10
22 -11 4 -14 2 -9 -7 6 -9 5 -9 -8 0 -8 7 -18 10 -21 6 -4 -3 -7 -1 -7 5 0 5
6 13 13 15 9 4 9 6 -1 6 -7 1 -15 -6 -18 -14 -4 -8 -12 -15 -20 -15 -17 0 -18
12 -2 28 9 9 5 9 -15 0 l-27 -13 22 -18 22 -18 -28 7 c-46 11 -69 10 -74 -5
-3 -9 0 -11 9 -6 8 5 10 4 6 0 -10 -12 -38 -15 -31 -4 3 5 -1 9 -8 10 -10 0
-10 2 0 6 20 8 14 21 -17 36 -23 11 -28 12 -25 2 3 -7 1 -16 -5 -20 -7 -3 -11
3 -11 15 0 13 -4 18 -11 14 -6 -3 -8 -16 -5 -28 5 -20 5 -20 -9 -2 -13 18 -20
15 -16 -6 2 -13 -16 -9 -29 7 -7 9 -15 13 -18 11 -2 -3 -13 -1 -22 4 -22 12
-49 -13 -29 -26 7 -4 9 -3 5 4 -11 18 7 20 39 5 17 -8 21 -12 10 -10 -11 2
-27 -2 -34 -10 -9 -10 -16 -12 -24 -4 -7 7 -15 7 -24 -1 -11 -8 -12 -7 -7 6 3
9 1 16 -4 16 -6 0 -13 -8 -15 -17 -3 -11 -5 -8 -6 9 -1 22 2 26 16 21 15 -6
16 -5 3 9 -13 14 -17 12 -32 -13 -18 -29 -42 -38 -53 -19 -3 6 -3 10 2 10 4 0
18 8 31 18 21 17 22 18 3 18 -11 0 -19 -5 -18 -10 1 -6 -7 -10 -18 -11 -15 0
-19 -6 -17 -22 3 -24 -12 -38 -29 -27 -8 4 -7 9 2 16 10 7 3 8 -21 4 -25 -4
-31 -3 -20 4 8 5 13 10 10 11 -32 5 -53 7 -42 3 6 -3 12 -10 12 -15 0 -14 -49
13 -53 30 -3 9 -5 6 -6 -9 -1 -19 -4 -21 -10 -11 -5 8 -7 21 -3 29 4 11 1 13
-7 7 -9 -5 -11 -18 -7 -38 5 -22 3 -28 -4 -21 -6 6 -12 21 -13 33 -1 11 -5 21
-10 21 -5 0 -7 -7 -3 -15 4 -13 2 -14 -14 -5 -16 9 -18 8 -14 -5 8 -20 -5 -19
-23 3 -8 9 -11 11 -7 3 4 -9 2 -12 -7 -9 -8 3 -13 11 -11 18 2 10 -1 10 -15
-1 -26 -20 -33 -32 -25 -44 3 -5 -2 -4 -12 4 -14 12 -19 12 -25 2 -6 -10 -10
-9 -14 3 -4 9 -13 13 -22 10 -9 -4 -14 -13 -11 -20 3 -8 1 -14 -5 -14 -5 0 -8
12 -7 27 2 20 -2 28 -16 31 -10 2 -16 0 -12 -6 3 -5 -1 -15 -8 -21 -11 -10
-15 -8 -18 6 -3 15 -5 14 -10 -6 -6 -22 -4 -23 25 -18 28 5 29 5 10 -5 -12 -6
-30 -7 -40 -3 -10 5 -22 7 -26 6 -5 -1 -6 3 -2 9 3 6 10 8 15 5 4 -2 10 6 12
20 3 14 4 25 3 25 -1 0 -16 -7 -34 -16 -25 -13 -31 -20 -26 -37 4 -14 -1 -10
-14 11 l-21 32 0 2868 c0 3121 3 2945 -55 3159 -134 489 -509 861 -1088 1077
-315 118 -668 184 -1029 193 l-218 6 0 -3647 0 -3646 -22 0 c-23 -1 -23 -1 2
-16 21 -12 22 -14 5 -12 -14 2 -19 -2 -17 -15 3 -17 2 -17 -15 0 -13 12 -15
21 -9 25 7 5 4 8 -6 8 -9 0 -18 -10 -21 -22 -4 -20 -4 -19 -6 5 -1 29 -12 35
-29 15 -15 -19 -15 -30 0 -39 9 -6 4 -9 -14 -9 -20 0 -28 5 -28 18 0 13 2 14
9 3 6 -9 11 -10 15 -2 4 6 3 11 -3 11 -6 0 -8 7 -5 15 4 8 1 15 -6 15 -6 0 -8
-5 -4 -12 5 -7 0 -9 -14 -6 -13 4 -19 2 -16 -6 3 -7 -7 -22 -21 -34 -30 -26
-36 -28 -29 -7 4 9 1 15 -7 15 -7 0 -20 7 -30 16 -10 9 -20 11 -23 6 -3 -5 1
-15 9 -22 8 -7 15 -17 15 -23 0 -6 -6 -2 -14 9 -14 18 -15 18 -25 -6 -11 -25
-11 -24 -7 5 3 23 -2 35 -22 49 -14 11 -22 13 -17 6 6 -10 2 -12 -19 -8 -20 4
-26 2 -24 -11 2 -8 -4 -16 -12 -16 -8 0 -14 -8 -14 -18 2 -24 -12 -21 -19 3
-3 11 -1 18 4 14 11 -7 11 7 0 25 -7 12 -12 11 -30 -1 -20 -14 -20 -16 -5 -22
9 -4 14 -9 11 -12 -3 -3 -15 0 -27 6 -18 10 -24 9 -31 -1 -4 -7 -5 -18 -2 -24
4 -5 2 -6 -3 -2 -4 4 -8 25 -6 45 1 20 -1 30 -5 22 -3 -8 -11 -18 -17 -22 -7
-5 -7 -8 2 -8 7 0 10 -5 6 -12 -5 -8 -10 -7 -18 3 -17 21 -35 21 -33 -1 1 -11
6 -20 11 -20 5 0 6 -3 3 -7 -4 -3 -16 2 -28 13 -12 10 -24 17 -27 14 -4 -3 -9
9 -12 25 l-6 30 -13 -24 c-11 -19 -11 -22 1 -16 7 3 5 0 -4 -8 -10 -8 -14 -18
-10 -22 4 -4 1 -6 -7 -3 -8 2 -17 10 -19 18 -3 7 0 10 7 6 6 -4 11 -3 11 3 0
11 -46 8 -58 -4 -4 -4 -1 -5 6 -1 6 4 12 2 12 -3 0 -6 -4 -11 -8 -11 -16 0
-21 13 -12 30 7 13 5 22 -7 31 -15 12 -16 12 -10 -4 6 -16 5 -16 -17 -2 -26
17 -36 11 -36 -22 0 -13 -4 -22 -10 -18 -5 3 -7 12 -4 19 4 10 -3 14 -25 12
-36 -2 -42 -7 -44 -34 0 -11 -4 -19 -8 -16 -5 2 -14 -2 -21 -9 -9 -10 -15 -11
-24 -3 -8 8 -7 14 5 23 11 9 12 12 3 13 -15 0 -6 20 9 20 6 0 8 -4 5 -8 -2 -4
-1 -14 5 -22 5 -8 9 -10 10 -5 0 6 2 19 3 31 3 22 -20 29 -41 11 -9 -6 -13 -6
-13 2 0 7 -5 9 -11 5 -8 -4 -8 -9 0 -17 14 -14 14 -27 1 -27 -5 0 -10 7 -10
15 0 10 -10 15 -30 15 -16 0 -30 5 -30 10 0 21 -42 10 -48 -12 -5 -21 -6 -21
-13 -2 -7 16 -8 17 -8 2 -1 -19 -21 -26 -21 -7 0 5 -4 8 -9 5 -5 -4 -11 0 -14
6 -3 10 -8 10 -18 -1 -12 -12 -12 -13 0 -6 10 6 12 4 7 -4 -6 -9 -11 -9 -23 1
-8 6 -23 13 -33 15 -22 3 -36 -12 -20 -22 5 -3 10 -11 10 -16 0 -6 -7 -4 -15
5 -9 8 -21 13 -29 10 -18 -7 -68 14 -61 26 3 5 2 10 -4 10 -5 0 -8 -16 -7 -35
2 -20 -1 -38 -7 -42 -6 -3 -7 -1 -3 5 4 7 2 12 -4 12 -6 0 -8 5 -5 10 3 6 1
10 -5 10 -6 0 -8 5 -4 12 4 7 3 8 -4 4 -7 -4 -12 -3 -12 3 0 5 8 12 18 14 9 3
5 4 -10 3 -35 -3 -42 -10 -23 -26 22 -18 19 -25 -14 -25 -16 0 -27 4 -24 9 4
5 -5 6 -19 3 -19 -5 -24 -3 -23 11 0 10 5 24 10 32 8 13 6 13 -8 1 -10 -8 -24
-10 -34 -6 -29 13 -43 14 -40 3 1 -6 -4 -13 -12 -16 -12 -4 -13 70 -7 489 43
3060 46 6130 6 7024 -15 333 -26 423 -66 529 -74 193 -218 460 -292 539 l-26
27 1783 0 c1762 0 1784 0 1884 -21z m-1098 -1680 c645 -108 1110 -384 1309
-777 41 -81 84 -218 101 -322 13 -84 15 -429 15 -2941 0 -3131 4 -2902 -60
-3100 -17 -50 -53 -136 -82 -192 -185 -361 -531 -612 -998 -726 -143 -34 -300
-59 -436 -68 l-94 -6 0 4083 0 4083 63 -7 c34 -4 116 -16 182 -27z"/>
</g>
</svg>
